<svg width="21" height="20" viewBox="0 0 21 20" fill="none" xmlns="http://www.w3.org/2000/svg">
<g id="Attachment">
<path id="Vector" d="M18.365 9.71787L10.7067 17.3762C9.76846 18.3144 8.49598 18.8415 7.16916 18.8415C5.84234 18.8415 4.56987 18.3144 3.63166 17.3762C2.69346 16.438 2.16638 15.1655 2.16638 13.8387C2.16638 12.5119 2.69346 11.2394 3.63166 10.3012L11.29 2.64287C11.9155 2.0174 12.7638 1.66602 13.6483 1.66602C14.5329 1.66602 15.3812 2.0174 16.0067 2.64287C16.6321 3.26834 16.9835 4.11666 16.9835 5.0012C16.9835 5.88575 16.6321 6.73407 16.0067 7.35953L8.34 15.0179C8.18515 15.1727 8.00131 15.2956 7.79899 15.3794C7.59667 15.4632 7.37982 15.5063 7.16083 15.5063C6.94184 15.5063 6.72499 15.4632 6.52267 15.3794C6.32035 15.2956 6.13651 15.1727 5.98166 15.0179C5.82681 14.863 5.70398 14.6792 5.62017 14.4769C5.53637 14.2745 5.49324 14.0577 5.49324 13.8387C5.49324 13.6197 5.53637 13.4029 5.62017 13.2005C5.70398 12.9982 5.82681 12.8144 5.98166 12.6595L13.0567 5.59287" stroke="#0F002B" stroke-width="1.25" stroke-linecap="round" stroke-linejoin="round"/>
</g>
</svg>
