<svg width="23" height="22" viewBox="0 0 23 22" fill="none" xmlns="http://www.w3.org/2000/svg">
<g id="Emoji">
<path id="Vector" d="M9.09375 10.6562C9.36725 10.6562 9.62956 10.5476 9.82295 10.3542C10.0164 10.1608 10.125 9.8985 10.125 9.625C10.125 9.3515 10.0164 9.08919 9.82295 8.8958C9.62956 8.7024 9.36725 8.59375 9.09375 8.59375C8.82025 8.59375 8.55794 8.7024 8.36455 8.8958C8.17115 9.08919 8.0625 9.3515 8.0625 9.625C8.0625 9.8985 8.17115 10.1608 8.36455 10.3542C8.55794 10.5476 8.82025 10.6562 9.09375 10.6562ZM8.937 13.2921C8.87705 13.2239 8.80418 13.1682 8.72259 13.1283C8.641 13.0884 8.55232 13.0651 8.46166 13.0597C8.371 13.0542 8.28017 13.0668 8.1944 13.0967C8.10864 13.1266 8.02964 13.1731 7.96198 13.2337C7.89431 13.2943 7.83932 13.3677 7.80018 13.4496C7.76104 13.5316 7.73853 13.6205 7.73394 13.7112C7.72935 13.8019 7.74278 13.8926 7.77345 13.9781C7.80412 14.0636 7.85142 14.1421 7.91262 14.2092C8.36376 14.7143 8.9166 15.1182 9.53485 15.3945C10.1531 15.6708 10.8228 15.8133 11.5 15.8125C12.1772 15.8133 12.8469 15.6708 13.4651 15.3945C14.0834 15.1182 14.6362 14.7143 15.0874 14.2092C15.207 14.0731 15.268 13.8952 15.2572 13.7143C15.2464 13.5334 15.1645 13.3641 15.0295 13.2432C14.8945 13.1223 14.7172 13.0597 14.5362 13.0688C14.3552 13.078 14.1851 13.1582 14.063 13.2921C13.7409 13.6532 13.3459 13.9419 12.9042 14.1393C12.4624 14.3368 11.9839 14.4384 11.5 14.4375C10.4825 14.4375 9.56813 13.9961 8.937 13.2921ZM14.9375 9.625C14.9375 9.8985 14.8288 10.1608 14.6355 10.3542C14.4421 10.5476 14.1798 10.6562 13.9062 10.6562C13.6327 10.6562 13.3704 10.5476 13.177 10.3542C12.9837 10.1608 12.875 9.8985 12.875 9.625C12.875 9.3515 12.9837 9.08919 13.177 8.8958C13.3704 8.7024 13.6327 8.59375 13.9062 8.59375C14.1798 8.59375 14.4421 8.7024 14.6355 8.8958C14.8288 9.08919 14.9375 9.3515 14.9375 9.625ZM19.75 11C19.75 9.91659 19.5366 8.8438 19.122 7.84286C18.7074 6.84193 18.0997 5.93245 17.3336 5.16637C16.5675 4.40029 15.6581 3.7926 14.6571 3.37799C13.6562 2.96339 12.5834 2.75 11.5 2.75C10.4166 2.75 9.3438 2.96339 8.34286 3.37799C7.34193 3.7926 6.43245 4.40029 5.66637 5.16637C4.90029 5.93245 4.2926 6.84193 3.87799 7.84286C3.46339 8.8438 3.25 9.91659 3.25 11C3.25 13.188 4.11919 15.2865 5.66637 16.8336C7.21354 18.3808 9.31196 19.25 11.5 19.25C13.688 19.25 15.7865 18.3808 17.3336 16.8336C18.8808 15.2865 19.75 13.188 19.75 11ZM4.625 11C4.625 9.17664 5.34933 7.42795 6.63864 6.13864C7.92795 4.84933 9.67664 4.125 11.5 4.125C13.3234 4.125 15.072 4.84933 16.3614 6.13864C17.6507 7.42795 18.375 9.17664 18.375 11C18.375 12.8234 17.6507 14.572 16.3614 15.8614C15.072 17.1507 13.3234 17.875 11.5 17.875C9.67664 17.875 7.92795 17.1507 6.63864 15.8614C5.34933 14.572 4.625 12.8234 4.625 11Z" fill="#0F002B"/>
</g>
</svg>
