<svg width="21" height="20" viewBox="0 0 21 20" fill="none" xmlns="http://www.w3.org/2000/svg">
<g id="Send">
<path id="Vector" d="M2.655 1.31602C2.55038 1.26369 2.43317 1.24177 2.3167 1.25277C2.20024 1.26376 2.0892 1.30721 1.99621 1.37819C1.90322 1.44917 1.83202 1.54482 1.79071 1.65426C1.74939 1.7637 1.73962 1.88255 1.7625 1.99727L3.51625 8.05977C3.54895 8.17275 3.61287 8.2742 3.70066 8.35248C3.78844 8.43076 3.89653 8.48268 4.0125 8.50227L11.125 9.69352C11.46 9.75977 11.46 10.2398 11.125 10.306L4.0125 11.4973C3.89653 11.5169 3.78844 11.5688 3.70066 11.6471C3.61287 11.7253 3.54895 11.8268 3.51625 11.9398L1.7625 18.0023C1.73962 18.117 1.74939 18.2358 1.79071 18.3453C1.83202 18.4547 1.90322 18.5504 1.99621 18.6213C2.0892 18.6923 2.20024 18.7358 2.3167 18.7468C2.43317 18.7578 2.55038 18.7358 2.655 18.6835L18.905 10.5585C19.0087 10.5066 19.0959 10.4268 19.1568 10.3281C19.2177 10.2294 19.25 10.1157 19.25 9.99977C19.25 9.8838 19.2177 9.77012 19.1568 9.67144C19.0959 9.57276 19.0087 9.49298 18.905 9.44102L2.655 1.31602Z" fill="#0F002B"/>
</g>
</svg>
