<svg width="200" height="200" viewBox="0 0 200 200" fill="none" xmlns="http://www.w3.org/2000/svg">
<g clip-path="url(#clip0_1800_9312)">
<rect x="127.499" y="93.75" width="12.5" height="12.5" rx="6.25" fill="black"/>
<rect x="148.749" y="95" width="10" height="10" rx="5" fill="black"/>
<rect x="167.499" y="96.25" width="7.5" height="7.5" rx="3.75" fill="black"/>
<rect x="183.749" y="97.5" width="5" height="5" rx="2.5" fill="black"/>
<rect x="197.499" y="98.75" width="2.5" height="2.5" rx="1.25" fill="black"/>
<rect x="124.462" y="115.625" width="12.5" height="12.5" rx="6.25" transform="rotate(45 124.462 115.625)" fill="black"/>
<rect x="138.604" y="131.535" width="10" height="10" rx="5" transform="rotate(45 138.604 131.535)" fill="black"/>
<rect x="150.979" y="145.677" width="7.5" height="7.5" rx="3.75" transform="rotate(45 150.979 145.677)" fill="black"/>
<rect x="161.585" y="158.051" width="5" height="5" rx="2.5" transform="rotate(45 161.585 158.051)" fill="black"/>
<rect x="170.424" y="168.658" width="2.5" height="2.5" rx="1.25" transform="rotate(45 170.424 168.658)" fill="black"/>
<rect x="115.624" y="75.6401" width="12.5" height="12.5" rx="6.25" transform="rotate(-45 115.624 75.6401)" fill="black"/>
<rect x="131.534" y="61.498" width="10" height="10" rx="5" transform="rotate(-45 131.534 61.498)" fill="black"/>
<rect x="145.676" y="49.1235" width="7.5" height="7.5" rx="3.75" transform="rotate(-45 145.676 49.1235)" fill="black"/>
<rect x="158.05" y="38.5171" width="5" height="5" rx="2.5" transform="rotate(-45 158.05 38.5171)" fill="black"/>
<rect x="168.657" y="29.6782" width="2.5" height="2.5" rx="1.25" transform="rotate(-45 168.657 29.6782)" fill="black"/>
<rect x="72.4985" y="106.25" width="12.5" height="12.5" rx="6.25" transform="rotate(-180 72.4985 106.25)" fill="black"/>
<rect x="51.2485" y="105" width="10" height="10" rx="5" transform="rotate(-180 51.2485 105)" fill="black"/>
<rect x="32.4985" y="103.75" width="7.5" height="7.5" rx="3.75" transform="rotate(-180 32.4985 103.75)" fill="black"/>
<rect x="16.2485" y="102.5" width="5" height="5" rx="2.5" transform="rotate(-180 16.2485 102.5)" fill="black"/>
<rect x="2.49854" y="101.25" width="2.5" height="2.5" rx="1.25" transform="rotate(-180 2.49854 101.25)" fill="black"/>
<rect x="75.6392" y="84.479" width="12.5" height="12.5" rx="6.25" transform="rotate(-135 75.6392 84.479)" fill="black"/>
<rect x="61.4971" y="68.5693" width="10" height="10" rx="5" transform="rotate(-135 61.4971 68.5693)" fill="black"/>
<rect x="49.1226" y="54.4268" width="7.5" height="7.5" rx="3.75" transform="rotate(-135 49.1226 54.4268)" fill="black"/>
<rect x="38.5161" y="42.0527" width="5" height="5" rx="2.5" transform="rotate(-135 38.5161 42.0527)" fill="black"/>
<rect x="29.6772" y="31.4458" width="2.5" height="2.5" rx="1.25" transform="rotate(-135 29.6772 31.4458)" fill="black"/>
<rect x="84.4771" y="124.464" width="12.5" height="12.5" rx="6.25" transform="rotate(135 84.4771 124.464)" fill="black"/>
<rect x="68.5674" y="138.606" width="10" height="10" rx="5" transform="rotate(135 68.5674 138.606)" fill="black"/>
<rect x="54.4248" y="150.98" width="7.5" height="7.5" rx="3.75" transform="rotate(135 54.4248 150.98)" fill="black"/>
<rect x="42.0508" y="161.587" width="5" height="5" rx="2.5" transform="rotate(135 42.0508 161.587)" fill="black"/>
<rect x="31.4438" y="170.426" width="2.5" height="2.5" rx="1.25" transform="rotate(135 31.4438 170.426)" fill="black"/>
<rect x="93.748" y="72.5" width="12.5" height="12.5" rx="6.25" transform="rotate(-90 93.748 72.5)" fill="black"/>
<rect x="94.998" y="51.25" width="10" height="10" rx="5" transform="rotate(-90 94.998 51.25)" fill="black"/>
<rect x="96.248" y="32.5" width="7.5" height="7.5" rx="3.75" transform="rotate(-90 96.248 32.5)" fill="black"/>
<rect x="97.498" y="16.25" width="5" height="5" rx="2.5" transform="rotate(-90 97.498 16.25)" fill="black"/>
<rect x="98.748" y="2.5" width="2.5" height="2.5" rx="1.25" transform="rotate(-90 98.748 2.5)" fill="black"/>
<rect x="106.249" y="127.5" width="12.5" height="12.5" rx="6.25" transform="rotate(90 106.249 127.5)" fill="black"/>
<rect x="104.999" y="148.75" width="10" height="10" rx="5" transform="rotate(90 104.999 148.75)" fill="black"/>
<rect x="103.749" y="167.5" width="7.5" height="7.5" rx="3.75" transform="rotate(90 103.749 167.5)" fill="black"/>
<rect x="102.499" y="183.75" width="5" height="5" rx="2.5" transform="rotate(90 102.499 183.75)" fill="black"/>
<rect x="101.249" y="197.5" width="2.5" height="2.5" rx="1.25" transform="rotate(90 101.249 197.5)" fill="black"/>
<rect x="84.374" y="84.375" width="31.25" height="31.25" rx="15.625" fill="black"/>
</g>
<defs>
<clipPath id="clip0_1800_9312">
<rect width="200" height="200" fill="white"/>
</clipPath>
</defs>
</svg>
