<svg width="32" height="33" viewBox="0 0 32 33" fill="none" xmlns="http://www.w3.org/2000/svg">
<g filter="url(#filter0_d_1182_726)">
<g clip-path="url(#clip0_1182_726)">
<path d="M16 24.5L13 20H14.5V17H17.5V20H19L16 24.5ZM26.5 2V14H5.5V2H26.5ZM28 0.5H4V15.5H28V0.5Z" fill="#0F002B"/>
<path d="M16 3.5C17.1935 3.5 18.3381 3.97411 19.182 4.81802C20.0259 5.66193 20.5 6.80653 20.5 8C20.5 9.19347 20.0259 10.3381 19.182 11.182C18.3381 12.0259 17.1935 12.5 16 12.5H23.5V11H25V5H23.5V3.5H16ZM11.5 8C11.5 6.80653 11.9741 5.66193 12.818 4.81802C13.6619 3.97411 14.8065 3.5 16 3.5H8.5V5H7V11H8.5V12.5H16C14.8065 12.5 13.6619 12.0259 12.818 11.182C11.9741 10.3381 11.5 9.19347 11.5 8Z" fill="#0F002B"/>
</g>
</g>
<defs>
<filter id="filter0_d_1182_726" x="0" y="0.5" width="32" height="32" filterUnits="userSpaceOnUse" color-interpolation-filters="sRGB">
<feFlood flood-opacity="0" result="BackgroundImageFix"/>
<feColorMatrix in="SourceAlpha" type="matrix" values="0 0 0 0 0 0 0 0 0 0 0 0 0 0 0 0 0 0 127 0" result="hardAlpha"/>
<feOffset dy="4"/>
<feGaussianBlur stdDeviation="2"/>
<feComposite in2="hardAlpha" operator="out"/>
<feColorMatrix type="matrix" values="0 0 0 0 0 0 0 0 0 0 0 0 0 0 0 0 0 0 0.25 0"/>
<feBlend mode="normal" in2="BackgroundImageFix" result="effect1_dropShadow_1182_726"/>
<feBlend mode="normal" in="SourceGraphic" in2="effect1_dropShadow_1182_726" result="shape"/>
</filter>
<clipPath id="clip0_1182_726">
<rect width="24" height="24" fill="white" transform="translate(4 0.5)"/>
</clipPath>
</defs>
</svg>
