<svg width="24" height="25" viewBox="0 0 24 25" fill="none" xmlns="http://www.w3.org/2000/svg">
<g id="Deposit" clip-path="url(#clip0_2140_3537)">
<path id="Vector" d="M12 24.5L9 20H10.5V17H13.5V20H15L12 24.5ZM22.5 2V14H1.5V2H22.5ZM24 0.5H0V15.5H24V0.5Z" fill="#0F002B"/>
<path id="Vector_2" d="M12 3.5C13.1935 3.5 14.3381 3.97411 15.182 4.81802C16.0259 5.66193 16.5 6.80653 16.5 8C16.5 9.19347 16.0259 10.3381 15.182 11.182C14.3381 12.0259 13.1935 12.5 12 12.5H19.5V11H21V5H19.5V3.5H12ZM7.5 8C7.5 6.80653 7.97411 5.66193 8.81802 4.81802C9.66193 3.97411 10.8065 3.5 12 3.5H4.5V5H3V11H4.5V12.5H12C10.8065 12.5 9.66193 12.0259 8.81802 11.182C7.97411 10.3381 7.5 9.19347 7.5 8Z" fill="#0F002B"/>
</g>
<defs>
<clipPath id="clip0_2140_3537">
<rect width="24" height="24" fill="white" transform="translate(0 0.5)"/>
</clipPath>
</defs>
</svg>
