<svg width="24" height="25" viewBox="0 0 24 25" fill="none" xmlns="http://www.w3.org/2000/svg">
<g id="history">
<path id="Vector" d="M13.26 3.50007C8.17 3.36007 4 7.45007 4 12.5001H2.21C1.76 12.5001 1.54 13.0401 1.86 13.3501L4.65 16.1501C4.85 16.3501 5.16 16.3501 5.36 16.1501L8.15 13.3501C8.2191 13.2796 8.26579 13.1902 8.28418 13.0932C8.30257 12.9962 8.29184 12.896 8.25335 12.8051C8.21485 12.7142 8.1503 12.6367 8.06785 12.5824C7.98539 12.5281 7.88871 12.4995 7.79 12.5001H6C6 8.60007 9.18 5.45007 13.1 5.50007C16.82 5.55007 19.95 8.68007 20 12.4001C20.05 16.3101 16.9 19.5001 13 19.5001C11.39 19.5001 9.9 18.9501 8.72 18.0201C8.52846 17.8692 8.28815 17.794 8.04477 17.8087C7.80138 17.8235 7.57191 17.9272 7.4 18.1001C6.98 18.5201 7.01 19.2301 7.48 19.5901C9.05113 20.8325 10.997 21.5058 13 21.5001C18.05 21.5001 22.14 17.3301 22 12.2401C21.87 7.55007 17.95 3.63007 13.26 3.50007ZM12.75 8.50007C12.34 8.50007 12 8.84007 12 9.25007V12.9301C12 13.2801 12.19 13.6101 12.49 13.7901L15.61 15.6401C15.97 15.8501 16.43 15.7301 16.64 15.3801C16.85 15.0201 16.73 14.5601 16.38 14.3501L13.5 12.6401V9.24007C13.5 8.84007 13.16 8.50007 12.75 8.50007Z" fill="#0F002B"/>
</g>
</svg>
