<svg width="25" height="12" viewBox="0 0 25 12" fill="none" xmlns="http://www.w3.org/2000/svg">
<path d="M6.0002 8.41535C6.6162 8.41535 7.1394 8.20015 7.5698 7.76975C8.0002 7.33855 8.2154 6.81535 8.2154 6.20015C8.2154 5.58495 8.0002 5.06175 7.5698 4.63055C7.1386 4.20015 6.6154 3.98495 6.0002 3.98495C5.385 3.98495 4.8618 4.20015 4.4306 4.63055C4.0002 5.06175 3.785 5.58495 3.785 6.20015C3.785 6.81535 4.0002 7.33855 4.4306 7.76975C4.8618 8.20015 5.385 8.41535 6.0002 8.41535ZM6.0002 11.8774C4.4002 11.8774 3.0542 11.3309 1.9622 10.2381C0.869398 9.14615 0.322998 7.80015 0.322998 6.20015C0.322998 4.60015 0.869398 3.25415 1.9622 2.16215C3.0542 1.06935 4.4002 0.522949 6.0002 0.522949C7.3586 0.522949 8.535 0.906149 9.5294 1.67255C10.5246 2.43895 11.1622 3.34815 11.4422 4.40015H22.2998L24.0926 6.19295L21.1166 9.35495L18.923 7.70015L16.7306 9.43055L14.8622 8.00015H11.4422C11.1574 9.07055 10.5142 9.98455 9.5126 10.7421C8.511 11.4989 7.3402 11.8774 6.0002 11.8774Z" fill="#0F002B"/>
</svg>
