<svg width="24" height="25" viewBox="0 0 24 25" fill="none" xmlns="http://www.w3.org/2000/svg">
<g id="new user">
<path id="Vector" d="M21 14.5H15C14.7348 14.5 14.4804 14.3946 14.2929 14.2071C14.1054 14.0196 14 13.7652 14 13.5C14 13.2348 14.1054 12.9804 14.2929 12.7929C14.4804 12.6054 14.7348 12.5 15 12.5H21C21.2652 12.5 21.5196 12.6054 21.7071 12.7929C21.8946 12.9804 22 13.2348 22 13.5C22 13.7652 21.8946 14.0196 21.7071 14.2071C21.5196 14.3946 21.2652 14.5 21 14.5ZM18 17.5C17.7348 17.5 17.4804 17.3946 17.2929 17.2071C17.1054 17.0196 17 16.7652 17 16.5V10.5C17 10.2348 17.1054 9.98043 17.2929 9.79289C17.4804 9.60536 17.7348 9.5 18 9.5C18.2652 9.5 18.5196 9.60536 18.7071 9.79289C18.8946 9.98043 19 10.2348 19 10.5V16.5C19 16.7652 18.8946 17.0196 18.7071 17.2071C18.5196 17.3946 18.2652 17.5 18 17.5ZM9 6.5C10.654 6.5 12 7.846 12 9.5C12 11.154 10.654 12.5 9 12.5C7.346 12.5 6 11.154 6 9.5C6 7.846 7.346 6.5 9 6.5ZM9 4.5C6.236 4.5 4 6.738 4 9.5C4 12.262 6.236 14.5 9 14.5C11.764 14.5 14 12.262 14 9.5C14 6.738 11.764 4.5 9 4.5ZM9 17.5C11.021 17.5 12.301 18.271 12.783 18.945C12.1 19.205 10.814 19.5 9 19.5C7.016 19.5 5.794 19.195 5.182 18.958C5.641 18.243 6.959 17.5 9 17.5ZM9 15.5C5.25 15.5 3 17.5 3 19.5C3 20.5 5.25 21.5 9 21.5C12.518 21.5 15 20.5 15 19.5C15 17.5 12.646 15.5 9 15.5Z" fill="#0F002B"/>
</g>
</svg>
