<svg width="36" height="37" viewBox="0 0 36 37" fill="none" xmlns="http://www.w3.org/2000/svg">
<g id="solar:lock-linear">
<g id="Group">
<path id="Vector" d="M3 24.5C3 20.258 3 18.1355 4.3185 16.8185C5.6355 15.5 7.758 15.5 12 15.5H24C28.242 15.5 30.3645 15.5 31.6815 16.8185C33 18.1355 33 20.258 33 24.5C33 28.742 33 30.8645 31.6815 32.1815C30.3645 33.5 28.242 33.5 24 33.5H12C7.758 33.5 5.6355 33.5 4.3185 32.1815C3 30.8645 3 28.742 3 24.5Z" stroke="#0F002B" stroke-width="1.5"/>
<path id="Vector_2" d="M9 15.5V12.5C9 10.1131 9.94821 7.82387 11.636 6.13604C13.3239 4.44821 15.6131 3.5 18 3.5C20.3869 3.5 22.6761 4.44821 24.364 6.13604C26.0518 7.82387 27 10.1131 27 12.5V15.5" stroke="#0F002B" stroke-width="1.5" stroke-linecap="round"/>
</g>
</g>
</svg>
