<svg width="24" height="25" viewBox="0 0 24 25" fill="none" xmlns="http://www.w3.org/2000/svg">
<g id="Referral">
<path id="Vector" d="M12 7.0625C12.5563 7.0625 13.1 6.89755 13.5625 6.58851C14.0251 6.27947 14.3855 5.84022 14.5984 5.3263C14.8113 4.81238 14.867 4.24688 14.7585 3.70131C14.6499 3.15574 14.3821 2.6546 13.9887 2.26126C13.5954 1.86793 13.0943 1.60006 12.5487 1.49154C12.0031 1.38302 11.4376 1.43872 10.9237 1.65159C10.4098 1.86446 9.97053 2.22495 9.66149 2.68746C9.35245 3.14997 9.1875 3.69374 9.1875 4.25C9.1875 4.99592 9.48382 5.71129 10.0113 6.23874C10.5387 6.76618 11.2541 7.0625 12 7.0625ZM12 2.5625C12.3338 2.5625 12.66 2.66147 12.9375 2.8469C13.215 3.03232 13.4313 3.29587 13.559 3.60422C13.6868 3.91257 13.7202 4.25187 13.6551 4.57922C13.59 4.90656 13.4292 5.20724 13.1932 5.44324C12.9572 5.67924 12.6566 5.83996 12.3292 5.90508C12.0019 5.97019 11.6626 5.93677 11.3542 5.80905C11.0459 5.68132 10.7823 5.46503 10.5969 5.18753C10.4115 4.91002 10.3125 4.58376 10.3125 4.25C10.3125 3.80245 10.4903 3.37323 10.8068 3.05676C11.1232 2.74029 11.5524 2.5625 12 2.5625ZM21.5203 8.76313C21.4435 8.38509 21.237 8.04576 20.9366 7.80373C20.6362 7.5617 20.2607 7.43217 19.875 7.4375H4.125C3.7404 7.4375 3.36734 7.56888 3.06761 7.80987C2.76788 8.05087 2.55946 8.38701 2.47688 8.76264C2.39429 9.13827 2.44249 9.53084 2.6135 9.87533C2.78451 10.2198 3.06806 10.4956 3.41719 10.6569H3.42656L8.33156 12.8131L6.32156 20.4537C6.21007 20.7109 6.16438 20.9918 6.18864 21.271C6.2129 21.5503 6.30632 21.8191 6.46049 22.0532C6.61466 22.2873 6.8247 22.4792 7.07166 22.6118C7.31862 22.7444 7.59471 22.8134 7.875 22.8125C8.19154 22.8117 8.50153 22.7222 8.7698 22.5542C9.03807 22.3861 9.2539 22.1463 9.39281 21.8619L12 17.375L14.6072 21.8666C14.8025 22.258 15.1421 22.5584 15.5546 22.7042C15.967 22.8501 16.42 22.8301 16.818 22.6484C17.2159 22.4667 17.5278 22.1376 17.6878 21.7305C17.8478 21.3233 17.8434 20.8699 17.6756 20.4659L15.6656 12.8253L20.5706 10.6691H20.58C20.9355 10.5122 21.2244 10.2353 21.3963 9.88689C21.5682 9.53845 21.6121 9.14066 21.5203 8.76313ZM20.1141 9.63406L14.775 11.9853C14.6527 12.0391 14.5536 12.1347 14.4954 12.255C14.4371 12.3752 14.4236 12.5123 14.4572 12.6416L16.6012 20.7913C16.6106 20.8233 16.6222 20.8546 16.6359 20.885C16.699 21.0203 16.7057 21.175 16.6546 21.3152C16.6035 21.4554 16.4989 21.5696 16.3636 21.6327C16.2283 21.6957 16.0736 21.7024 15.9334 21.6513C15.7931 21.6003 15.679 21.4956 15.6159 21.3603C15.6094 21.3449 15.6019 21.3298 15.5934 21.3153L12.4866 15.9688C12.4371 15.8835 12.3661 15.8128 12.2808 15.7636C12.1954 15.7144 12.0985 15.6885 12 15.6885C11.9015 15.6885 11.8046 15.7144 11.7192 15.7636C11.6339 15.8128 11.5629 15.8835 11.5134 15.9688L8.40844 21.3172C8.4 21.3322 8.3925 21.3463 8.385 21.3622C8.35377 21.4294 8.30956 21.4898 8.25491 21.5399C8.20025 21.59 8.13623 21.6288 8.06653 21.6541C7.99683 21.6793 7.92283 21.6906 7.84877 21.6871C7.77471 21.6837 7.70206 21.6657 7.635 21.6341C7.56776 21.6028 7.50736 21.5586 7.45726 21.504C7.40717 21.4493 7.36837 21.3853 7.34311 21.3156C7.31784 21.2459 7.3066 21.1719 7.31004 21.0978C7.31347 21.0238 7.33151 20.9511 7.36312 20.8841C7.37685 20.8537 7.38844 20.8223 7.39781 20.7903L9.54187 12.6406C9.57546 12.5113 9.56193 12.3743 9.5037 12.254C9.44547 12.1338 9.34634 12.0382 9.22406 11.9844L3.88781 9.63406C3.77224 9.57974 3.67859 9.4877 3.62227 9.37309C3.56594 9.25848 3.55029 9.12812 3.57789 9.00343C3.60549 8.87875 3.67469 8.76716 3.77413 8.68703C3.87356 8.60689 3.9973 8.56298 4.125 8.5625H19.875C20.0029 8.56234 20.1271 8.6058 20.227 8.68571C20.327 8.76562 20.3966 8.87721 20.4246 9.00206C20.4526 9.12691 20.4371 9.25757 20.3808 9.37246C20.3246 9.48736 20.2308 9.57963 20.115 9.63406H20.1141Z" fill="#0F002B"/>
</g>
</svg>
