<svg width="24" height="24" viewBox="0 0 24 24" fill="none" xmlns="http://www.w3.org/2000/svg">
<g id="stats">
<path id="Vector" d="M19.88 18.47C20.36 17.7 20.63 16.8 20.57 15.81C20.44 13.66 18.73 11.84 16.6 11.61C15.9694 11.5366 15.3304 11.5975 14.725 11.7887C14.1196 11.9798 13.5616 12.2969 13.0874 12.7191C12.6133 13.1413 12.2339 13.659 11.9741 14.2382C11.7143 14.8175 11.58 15.4452 11.58 16.08C11.58 18.57 13.59 20.58 16.07 20.58C16.95 20.58 17.77 20.32 18.46 19.88L20.87 22.29C21.26 22.68 21.9 22.68 22.29 22.29C22.68 21.9 22.68 21.26 22.29 20.87L19.88 18.47ZM16.08 18.58C15.4169 18.58 14.7811 18.3166 14.3122 17.8478C13.8434 17.3789 13.58 16.743 13.58 16.08C13.58 15.417 13.8434 14.7811 14.3122 14.3122C14.7811 13.8434 15.4169 13.58 16.08 13.58C16.743 13.58 17.3789 13.8434 17.8478 14.3122C18.3166 14.7811 18.58 15.417 18.58 16.08C18.58 16.743 18.3166 17.3789 17.8478 17.8478C17.3789 18.3166 16.743 18.58 16.08 18.58ZM15.72 10.08C14.98 10.1 14.27 10.26 13.62 10.53L13.07 9.7L9.98998 14.71C9.90769 14.8442 9.79489 14.9571 9.66074 15.0394C9.5266 15.1218 9.37491 15.1713 9.21801 15.184C9.06111 15.1966 8.90344 15.1721 8.75781 15.1123C8.61219 15.0525 8.48274 14.9592 8.37999 14.84L6.25999 12.37L3.19999 17.27C2.88999 17.76 2.22998 17.89 1.75998 17.55C1.33998 17.24 1.21998 16.66 1.49998 16.21L5.27999 10.16C5.63999 9.59 6.44999 9.53 6.88999 10.04L8.99999 12.5L12.18 7.33C12.2674 7.18712 12.3895 7.0686 12.5349 6.98541C12.6803 6.90222 12.8443 6.85703 13.0118 6.85404C13.1792 6.85105 13.3448 6.89035 13.493 6.9683C13.6413 7.04625 13.7675 7.16034 13.86 7.3L15.72 10.08ZM18.31 10.58C17.67 10.3 16.98 10.13 16.26 10.09L20.8 2.9C21.11 2.41 21.77 2.29 22.23 2.63C22.66 2.94 22.77 3.53 22.49 3.97L18.31 10.58Z" fill="#0F002B"/>
</g>
</svg>
