<svg width="24" height="25" viewBox="0 0 24 25" fill="none" xmlns="http://www.w3.org/2000/svg">
<g id="support">
<path id="Vector" d="M10.155 15.273L10.146 15.252C10.0108 15.2151 9.87674 15.1741 9.744 15.129L9.734 15.125C8.35223 14.6529 7.15282 13.7603 6.30387 12.5722C5.45493 11.3842 4.999 9.96024 5 8.50004C4.99955 6.70815 5.6863 4.98431 6.91879 3.6836C8.15128 2.38289 9.83565 1.60436 11.625 1.50835C13.4143 1.41235 15.1723 2.00619 16.5369 3.16756C17.9015 4.32893 18.7687 5.96939 18.96 7.75104C19.004 8.16304 18.664 8.50004 18.25 8.50004C17.836 8.50004 17.505 8.16204 17.45 7.75204C17.317 6.78431 16.9287 5.86945 16.325 5.10149C15.7213 4.33352 14.9241 3.74015 14.0151 3.38237C13.1062 3.02458 12.1183 2.91528 11.1532 3.06569C10.188 3.21611 9.28027 3.62082 8.5233 4.23823C7.76634 4.85563 7.18742 5.66347 6.84606 6.57871C6.5047 7.49395 6.41321 8.48359 6.58098 9.4459C6.74875 10.4082 7.16974 11.3085 7.80069 12.0542C8.43163 12.7999 9.24976 13.3642 10.171 13.689C10.3566 13.2696 10.6807 12.9266 11.0891 12.7177C11.4974 12.5088 11.9652 12.4466 12.4139 12.5415C12.8627 12.6364 13.2652 12.8827 13.5539 13.2391C13.8427 13.5955 14.0002 14.0403 14 14.499C14 15.097 13.738 15.633 13.323 15.999C12.9582 16.3224 12.4875 16.5007 12 16.5C11.6056 16.501 11.2197 16.385 10.8913 16.1666C10.5628 15.9481 10.3066 15.6372 10.155 15.273ZM7.997 16C7.26018 15.6058 6.5853 15.1055 5.994 14.515C5.44614 14.5788 4.94077 14.8415 4.57391 15.2534C4.20704 15.6652 4.00423 16.1975 4.004 16.749V17.327C4.004 18.219 4.322 19.083 4.902 19.762C6.468 21.596 8.854 22.502 12 22.502C15.146 22.502 17.533 21.596 19.102 19.762C19.6834 19.0828 20.0029 18.2181 20.003 17.324V16.749C20.0031 16.4537 19.9451 16.1612 19.8322 15.8883C19.7193 15.6154 19.5537 15.3674 19.345 15.1585C19.1362 14.9495 18.8884 14.7838 18.6156 14.6706C18.3428 14.5575 18.0503 14.4992 17.755 14.499H15.5C15.5 15.037 15.38 15.545 15.163 15.999H17.754C17.9529 15.999 18.1437 16.0781 18.2843 16.2187C18.425 16.3594 18.504 16.5501 18.504 16.749V17.324C18.5039 17.8606 18.312 18.3795 17.963 18.787C16.706 20.255 14.739 21.001 12 21.001C9.262 21.001 7.296 20.255 6.043 18.788C5.69457 18.3806 5.50308 17.8621 5.503 17.326V16.749C5.503 16.5501 5.58202 16.3594 5.72267 16.2187C5.86332 16.0781 6.05409 15.999 6.253 15.999H7.997V16ZM8 8.50004C8.00018 7.81009 8.17882 7.13192 8.51857 6.53142C8.85832 5.93091 9.34761 5.4285 9.93892 5.07299C10.5302 4.71748 11.2034 4.52096 11.8931 4.50253C12.5828 4.48409 13.2656 4.64437 13.875 4.96779C14.4845 5.29121 14.9999 5.76678 15.3713 6.34827C15.7426 6.92977 15.9572 7.59743 15.9942 8.28639C16.0313 8.97534 15.8895 9.66216 15.5826 10.2801C15.2757 10.8981 14.8143 11.4261 14.243 11.813C13.6142 11.2867 12.82 10.9988 12 11C12.663 11 13.2989 10.7366 13.7678 10.2678C14.2366 9.79897 14.5 9.16308 14.5 8.50004C14.5 7.837 14.2366 7.20111 13.7678 6.73227C13.2989 6.26343 12.663 6.00004 12 6.00004C11.337 6.00004 10.7011 6.26343 10.2322 6.73227C9.76339 7.20111 9.5 7.837 9.5 8.50004C9.5 9.16308 9.76339 9.79897 10.2322 10.2678C10.7011 10.7366 11.337 11 12 11C11.146 11 10.364 11.306 9.758 11.813C9.21564 11.4474 8.77159 10.954 8.465 10.3762C8.15841 9.79845 7.99872 9.15411 8 8.50004Z" fill="#0F002B"/>
</g>
</svg>
