<svg width="36" height="37" viewBox="0 0 36 37" fill="none" xmlns="http://www.w3.org/2000/svg">
<g id="solar:user-id-linear">
<g id="Group">
<path id="Vector" d="M13.5 17C15.1569 17 16.5 15.6569 16.5 14C16.5 12.3431 15.1569 11 13.5 11C11.8431 11 10.5 12.3431 10.5 14C10.5 15.6569 11.8431 17 13.5 17Z" stroke="#0F002B" stroke-width="1.5"/>
<path id="Vector_2" d="M19.5 23C19.5 24.6575 19.5 26 13.5 26C7.5 26 7.5 24.6575 7.5 23C7.5 21.3425 10.185 20 13.5 20C16.815 20 19.5 21.3425 19.5 23Z" stroke="#0F002B" stroke-width="1.5"/>
<path id="Vector_3" d="M3 18.5C3 12.8435 3 10.0145 4.758 8.258C6.5145 6.5 9.3435 6.5 15 6.5H21C26.6565 6.5 29.4855 6.5 31.242 8.258C33 10.0145 33 12.8435 33 18.5C33 24.1565 33 26.9855 31.242 28.742C29.4855 30.5 26.6565 30.5 21 30.5H15C9.3435 30.5 6.5145 30.5 4.758 28.742C3 26.9855 3 24.1565 3 18.5Z" stroke="#0F002B" stroke-width="1.5"/>
<path id="Vector_4" d="M28.5 18.5H22.5M28.5 14H21M28.5 23H24" stroke="#0F002B" stroke-width="1.5" stroke-linecap="round"/>
</g>
</g>
</svg>
