<svg width="24" height="25" viewBox="0 0 24 25" fill="none" xmlns="http://www.w3.org/2000/svg">
<g id="Withdraw" clip-path="url(#clip0_2140_3543)">
<path id="Vector" d="M12 0.5L15 5H13.5V8H10.5V5H9L12 0.5ZM22.5 11V23H1.5V11H22.5ZM24 9.5H0V24.5H24V9.5Z" fill="#0F002B"/>
<path id="Vector_2" d="M12 12.5C12.5909 12.5 13.1761 12.6164 13.7221 12.8425C14.268 13.0687 14.7641 13.4002 15.182 13.818C15.5998 14.2359 15.9313 14.732 16.1575 15.2779C16.3836 15.8239 16.5 16.4091 16.5 17C16.5 17.5909 16.3836 18.1761 16.1575 18.7221C15.9313 19.268 15.5998 19.7641 15.182 20.182C14.7641 20.5998 14.268 20.9313 13.7221 21.1575C13.1761 21.3836 12.5909 21.5 12 21.5H19.5V20H21V14H19.5V12.5H12ZM7.5 17C7.5 15.8065 7.97411 14.6619 8.81802 13.818C9.66193 12.9741 10.8065 12.5 12 12.5H4.5V14H3V20H4.5V21.5H12C10.8065 21.5 9.66193 21.0259 8.81802 20.182C7.97411 19.3381 7.5 18.1935 7.5 17Z" fill="#0F002B"/>
</g>
<defs>
<clipPath id="clip0_2140_3543">
<rect width="24" height="24" fill="white" transform="translate(0 0.5)"/>
</clipPath>
</defs>
</svg>
