<svg width="28" height="28" viewBox="0 0 28 28" fill="none" xmlns="http://www.w3.org/2000/svg">
<g id="ph:caret-down">
<path id="Vector" d="M23.3691 11.1191L14.6191 19.8691C14.5378 19.9504 14.4413 20.015 14.3351 20.059C14.2288 20.103 14.115 20.1257 14 20.1257C13.885 20.1257 13.7711 20.103 13.6649 20.059C13.5587 20.015 13.4622 19.9504 13.3809 19.8691L4.63094 11.1191C4.46675 10.9549 4.37451 10.7322 4.37451 10.5C4.37451 10.2678 4.46675 10.0451 4.63094 9.88094C4.79512 9.71675 5.0178 9.62451 5.25 9.62451C5.48219 9.62451 5.70487 9.71675 5.86906 9.88094L14 18.013L22.1309 9.88094C22.2122 9.79964 22.3087 9.73515 22.415 9.69115C22.5212 9.64716 22.635 9.62451 22.75 9.62451C22.865 9.62451 22.9788 9.64716 23.085 9.69115C23.1913 9.73515 23.2878 9.79964 23.3691 9.88094C23.4504 9.96223 23.5148 10.0587 23.5588 10.165C23.6028 10.2712 23.6255 10.385 23.6255 10.5C23.6255 10.615 23.6028 10.7288 23.5588 10.835C23.5148 10.9413 23.4504 11.0378 23.3691 11.1191Z" fill="#0F002B"/>
</g>
</svg>
