<svg width="31" height="30" viewBox="0 0 31 30" fill="none" xmlns="http://www.w3.org/2000/svg">
<g id="ph:star-light">
<path id="Vector" d="M28.1755 11.6124C28.0796 11.3076 27.8946 11.0385 27.6444 10.8397C27.3942 10.6409 27.0903 10.5215 26.7717 10.4968L19.8618 9.8995C19.82 9.89539 19.7801 9.88004 19.7464 9.85507C19.7126 9.83011 19.6862 9.79647 19.6701 9.75772L16.9705 3.32428C16.8455 3.0308 16.6369 2.78054 16.3708 2.60464C16.1047 2.42874 15.7927 2.33496 15.4737 2.33496C15.1547 2.33496 14.8427 2.42874 14.5766 2.60464C14.3105 2.78054 14.1019 3.0308 13.9769 3.32428L11.2773 9.75772C11.2611 9.79647 11.2348 9.83011 11.201 9.85507C11.1672 9.88004 11.1273 9.89539 11.0856 9.8995L4.17566 10.4968C3.85706 10.5215 3.55312 10.6409 3.30295 10.8397C3.05278 11.0385 2.86781 11.3076 2.77183 11.6124C2.67018 11.9177 2.6613 12.2462 2.74631 12.5565C2.83133 12.8667 3.00642 13.1448 3.24945 13.3556L8.49173 17.9285C8.52383 17.957 8.54767 17.9936 8.56076 18.0345C8.57384 18.0754 8.57569 18.1191 8.5661 18.1609L6.99028 24.9604C6.91683 25.2735 6.93778 25.6013 7.05051 25.9024C7.16323 26.2036 7.36267 26.4646 7.62363 26.6525C7.88055 26.842 8.18839 26.9502 8.5074 26.9631C8.82642 26.9759 9.14196 26.8928 9.41328 26.7245L15.3528 23.122C15.3877 23.1004 15.428 23.0889 15.469 23.0889C15.5101 23.0889 15.5503 23.1004 15.5852 23.122L21.5248 26.7245C21.7989 26.8924 22.1166 26.9752 22.4378 26.9627C22.759 26.9501 23.0693 26.8427 23.3295 26.654C23.5897 26.4653 23.7882 26.2037 23.8999 25.9023C24.0116 25.6009 24.0315 25.2731 23.9571 24.9604L22.3859 18.1586C22.3763 18.1168 22.3782 18.0731 22.3913 18.0322C22.4043 17.9913 22.4282 17.9547 22.4603 17.9262L27.7026 13.3533C27.9443 13.1421 28.1183 12.8642 28.2024 12.5544C28.2866 12.2447 28.2772 11.9169 28.1755 11.6124ZM26.781 12.3004L21.5387 16.8733C21.3154 17.0677 21.1493 17.3193 21.0583 17.6011C20.9674 17.8829 20.9551 18.1841 21.0228 18.4724L22.5939 25.2742C22.6055 25.3199 22.603 25.3681 22.5866 25.4123C22.5702 25.4565 22.5407 25.4947 22.5021 25.5217C22.4672 25.5497 22.4242 25.5658 22.3795 25.5677C22.3348 25.5696 22.2906 25.5571 22.2534 25.5322L16.3139 21.9297C16.0607 21.7757 15.77 21.6943 15.4737 21.6943C15.1773 21.6943 14.8867 21.7757 14.6335 21.9297L8.69394 25.5322C8.65677 25.5571 8.61261 25.5696 8.56788 25.5677C8.52315 25.5658 8.48019 25.5497 8.44525 25.5217C8.40664 25.4947 8.37718 25.4565 8.36079 25.4123C8.34439 25.3681 8.34183 25.3199 8.35344 25.2742L9.92461 18.4724C9.99225 18.1841 9.97995 17.8829 9.88903 17.6011C9.7981 17.3193 9.632 17.0677 9.40863 16.8733L4.16636 12.3004C4.13051 12.2699 4.10476 12.2293 4.09251 12.1838C4.08027 12.1384 4.08211 12.0903 4.09779 12.0459C4.10953 12.0017 4.13498 11.9624 4.17047 11.9336C4.20597 11.9048 4.24969 11.8879 4.29535 11.8855L11.2064 11.2882C11.5023 11.263 11.7856 11.1573 12.0257 10.9826C12.2658 10.8078 12.4535 10.5707 12.5684 10.2969L15.268 3.8635C15.2868 3.82357 15.3165 3.78981 15.3538 3.76616C15.391 3.74251 15.4342 3.72995 15.4783 3.72995C15.5225 3.72995 15.5657 3.74251 15.6029 3.76616C15.6402 3.78981 15.6699 3.82357 15.6887 3.8635L18.379 10.2969C18.4935 10.5701 18.6805 10.8067 18.9197 10.9814C19.1589 11.1561 19.4413 11.2622 19.7363 11.2882L26.6474 11.8855C26.693 11.8879 26.7367 11.9048 26.7722 11.9336C26.8077 11.9624 26.8332 12.0017 26.8449 12.0459C26.8611 12.0898 26.8637 12.1376 26.8523 12.183C26.8409 12.2285 26.8161 12.2694 26.781 12.3004Z" fill="#0F002B"/>
</g>
</svg>
