<svg width="42" height="42" viewBox="0 0 42 42" fill="none" xmlns="http://www.w3.org/2000/svg">
<path d="M17.5766 2.20372C18.5666 0.197719 21.4286 0.197719 22.4186 2.20372L27.1346 11.7597L37.6805 13.2917C39.8945 13.6117 40.7785 16.3357 39.1765 17.8977L37.3666 19.6617C36.4115 19.1241 35.392 18.7101 34.3326 18.4297L36.6465 16.1737L26.5466 14.7057C26.1134 14.6425 25.7021 14.475 25.3481 14.2175C24.9942 13.96 24.7081 13.6203 24.5146 13.2277L19.9966 4.07972L15.4806 13.2277C15.287 13.6203 15.0009 13.96 14.647 14.2175C14.293 14.475 13.8817 14.6425 13.4486 14.7057L3.34855 16.1737L10.6566 23.2977C11.2926 23.9177 11.5826 24.8117 11.4326 25.6877L9.70855 35.7457L18.0066 31.3837C18.0366 32.4677 18.2026 33.5177 18.4826 34.5217L10.5666 38.6837C8.58655 39.7237 6.27055 38.0437 6.64655 35.8377L8.44855 25.3357L0.818551 17.8957C-0.783449 16.3357 0.100551 13.6137 2.31455 13.2917L12.8606 11.7597L17.5766 2.20372ZM42.0005 30.9997C42.0005 28.0823 40.8416 25.2844 38.7787 23.2215C36.7158 21.1586 33.9179 19.9997 31.0006 19.9997C28.0832 19.9997 25.2853 21.1586 23.2224 23.2215C21.1595 25.2844 20.0006 28.0823 20.0006 30.9997C20.0006 33.9171 21.1595 36.715 23.2224 38.7779C25.2853 40.8408 28.0832 41.9997 31.0006 41.9997C33.9179 41.9997 36.7158 40.8408 38.7787 38.7779C40.8416 36.715 42.0005 33.9171 42.0005 30.9997ZM32.0005 31.9997L32.0025 37.0057C32.0025 37.2709 31.8972 37.5253 31.7097 37.7128C31.5221 37.9004 31.2678 38.0057 31.0026 38.0057C30.7373 38.0057 30.483 37.9004 30.2954 37.7128C30.1079 37.5253 30.0026 37.2709 30.0026 37.0057V31.9997H24.9926C24.7273 31.9997 24.473 31.8944 24.2854 31.7068C24.0979 31.5193 23.9926 31.2649 23.9926 30.9997C23.9926 30.7345 24.0979 30.4801 24.2854 30.2926C24.473 30.1051 24.7273 29.9997 24.9926 29.9997H30.0006V24.9977C30.0006 24.7325 30.1059 24.4781 30.2934 24.2906C30.481 24.1031 30.7353 23.9977 31.0006 23.9977C31.2658 23.9977 31.5201 24.1031 31.7077 24.2906C31.8952 24.4781 32.0005 24.7325 32.0005 24.9977V29.9977H36.9945C37.2598 29.9977 37.5141 30.1031 37.7017 30.2906C37.8892 30.4781 37.9945 30.7325 37.9945 30.9977C37.9945 31.2629 37.8892 31.5173 37.7017 31.7048C37.5141 31.8924 37.2598 31.9977 36.9945 31.9977L32.0005 31.9997Z" fill="#0F002B"/>
</svg>
