<svg width="21" height="20" viewBox="0 0 21 20" fill="none" xmlns="http://www.w3.org/2000/svg">
<g id="logos:facebook" clip-path="url(#clip0_69_797)">
<path id="Vector" d="M20.85 10C20.85 4.47719 16.3728 0 10.85 0C5.32716 0 0.849976 4.47711 0.849976 10C0.849976 14.9913 4.50685 19.1284 9.28748 19.8785V12.8906H6.74841V10H9.28748V7.79688C9.28748 5.29063 10.7804 3.90625 13.0646 3.90625C14.1587 3.90625 15.3031 4.10156 15.3031 4.10156V6.5625H14.0422C12.7998 6.5625 12.4125 7.33336 12.4125 8.12422V10H15.1859L14.7426 12.8906H12.4125V19.8785C17.1931 19.1284 20.85 14.9913 20.85 10Z" fill="#1877F2"/>
<path id="Vector_2" d="M14.7426 12.8906L15.1859 10H12.4125V8.12422C12.4125 7.33328 12.7999 6.5625 14.0422 6.5625H15.3031V4.10156C15.3031 4.10156 14.1587 3.90625 13.0646 3.90625C10.7804 3.90625 9.28748 5.29063 9.28748 7.79688V10H6.74841V12.8906H9.28748V19.8785C9.80436 19.9595 10.3268 20.0001 10.85 20C11.3732 20.0002 11.8956 19.9595 12.4125 19.8785V12.8906H14.7426Z" fill="white"/>
</g>
<defs>
<clipPath id="clip0_69_797">
<rect width="20" height="20" fill="white" transform="translate(0.849976)"/>
</clipPath>
</defs>
</svg>
