<svg width="16" height="15" viewBox="0 0 16 15" fill="none" xmlns="http://www.w3.org/2000/svg">
<g filter="url(#filter0_d_2632_3808)">
<path d="M13.3335 0.333008H2.66683C1.9335 0.333008 1.3335 0.933008 1.3335 1.66634V13.6663L4.00016 10.9997H13.3335C14.0668 10.9997 14.6668 10.3997 14.6668 9.66634V1.66634C14.6668 0.933008 14.0668 0.333008 13.3335 0.333008ZM4.00016 8.33301V6.68634L8.58683 2.09967C8.72016 1.96634 8.92683 1.96634 9.06016 2.09967L10.2402 3.27967C10.3735 3.41301 10.3735 3.61967 10.2402 3.75301L5.64683 8.33301H4.00016ZM11.3335 8.33301H7.00016L8.3335 6.99967H11.3335C11.7002 6.99967 12.0002 7.29967 12.0002 7.66634C12.0002 8.03301 11.7002 8.33301 11.3335 8.33301Z" fill="#0F002B"/>
</g>
<defs>
<filter id="filter0_d_2632_3808" x="-2.6665" y="0.333008" width="21.3335" height="21.333" filterUnits="userSpaceOnUse" color-interpolation-filters="sRGB">
<feFlood flood-opacity="0" result="BackgroundImageFix"/>
<feColorMatrix in="SourceAlpha" type="matrix" values="0 0 0 0 0 0 0 0 0 0 0 0 0 0 0 0 0 0 127 0" result="hardAlpha"/>
<feOffset dy="4"/>
<feGaussianBlur stdDeviation="2"/>
<feComposite in2="hardAlpha" operator="out"/>
<feColorMatrix type="matrix" values="0 0 0 0 0 0 0 0 0 0 0 0 0 0 0 0 0 0 0.25 0"/>
<feBlend mode="normal" in2="BackgroundImageFix" result="effect1_dropShadow_2632_3808"/>
<feBlend mode="normal" in="SourceGraphic" in2="effect1_dropShadow_2632_3808" result="shape"/>
</filter>
</defs>
</svg>
