<svg width="20" height="20" viewBox="0 0 20 20" fill="none" xmlns="http://www.w3.org/2000/svg">
<path d="M14.9998 6.66667C14.9998 7.10869 14.8242 7.53262 14.5117 7.84518C14.1991 8.15774 13.7752 8.33333 13.3332 8.33333C12.8911 8.33333 12.4672 8.15774 12.1547 7.84518C11.8421 7.53262 11.6665 7.10869 11.6665 6.66667C11.6665 6.22464 11.8421 5.80072 12.1547 5.48816C12.4672 5.17559 12.8911 5 13.3332 5C13.7752 5 14.1991 5.17559 14.5117 5.48816C14.8242 5.80072 14.9998 6.22464 14.9998 6.66667Z" fill="#0F002B"/>
<path fill-rule="evenodd" clip-rule="evenodd" d="M9.95234 1.04199H10.0473C11.9715 1.04199 13.479 1.04199 14.6557 1.20033C15.859 1.36199 16.809 1.70033 17.5548 2.44533C18.3007 3.19116 18.6382 4.14116 18.7998 5.34533C18.9582 6.52116 18.9582 8.02866 18.9582 9.95283V10.0262C18.9582 11.617 18.9582 12.9187 18.8715 13.9787C18.7848 15.0453 18.6073 15.9345 18.209 16.6745C18.034 17.0003 17.8173 17.2928 17.5548 17.5553C16.809 18.3012 15.859 18.6387 14.6548 18.8003C13.479 18.9587 11.9715 18.9587 10.0473 18.9587H9.95234C8.02817 18.9587 6.52067 18.9587 5.344 18.8003C4.14067 18.6387 3.19067 18.3003 2.44484 17.5553C1.784 16.8945 1.44234 16.072 1.2615 15.0503C1.08234 14.0478 1.04984 12.8003 1.04317 11.252C1.0415 10.8578 1.0415 10.4412 1.0415 10.0012V9.95283C1.0415 8.02866 1.0415 6.52116 1.19984 5.34449C1.3615 4.14116 1.69984 3.19116 2.44484 2.44533C3.19067 1.69949 4.14067 1.36199 5.34484 1.20033C6.52067 1.04199 8.02817 1.04199 9.95234 1.04199ZM5.51067 2.43866C4.44567 2.58199 3.80317 2.85533 3.329 3.32949C2.854 3.80449 2.5815 4.44616 2.43817 5.51199C2.29317 6.59532 2.2915 8.01866 2.2915 10.0003V10.7037L3.12567 9.97283C3.49167 9.65264 3.96568 9.48355 4.4517 9.49979C4.93771 9.51604 5.39937 9.71641 5.74317 10.0603L9.31817 13.6353C9.59559 13.9127 9.96196 14.0833 10.3528 14.1171C10.7436 14.151 11.1339 14.0459 11.4548 13.8203L11.7032 13.6453C12.1662 13.3199 12.726 13.1613 13.291 13.1954C13.8559 13.2294 14.3925 13.4542 14.8132 13.8328L17.1715 15.9553C17.4098 15.457 17.5507 14.802 17.6257 13.8778C17.7073 12.8737 17.7082 11.622 17.7082 10.0003C17.7082 8.01866 17.7065 6.59532 17.5615 5.51199C17.4182 4.44616 17.1448 3.80366 16.6707 3.32866C16.1957 2.85449 15.554 2.58199 14.4882 2.43866C13.4048 2.29366 11.9815 2.29199 9.99984 2.29199C8.01817 2.29199 6.594 2.29366 5.51067 2.43866Z" fill="#0F002B"/>
</svg>
