<svg width="81" height="36" viewBox="0 0 81 36" fill="none" xmlns="http://www.w3.org/2000/svg">
<g filter="url(#filter0_d_665_3687)">
<g clip-path="url(#clip0_665_3687)">
<rect x="4" width="73" height="28" rx="14" fill="#00C300"/>
<path d="M17.155 19V8.425H19.075V13.105H19.105L23.77 8.425H26.11L20.965 13.51L26.365 19H23.995L19.105 14.11H19.075V19H17.155ZM29.2844 19V14.14L25.2194 8.425H27.4544L30.2744 12.43L33.1094 8.425H35.2544L31.2044 14.155V19H29.2844ZM40.3123 19.15C39.2123 19.15 38.2673 18.93 37.4773 18.49C36.6973 18.04 36.0973 17.41 35.6773 16.6C35.2573 15.78 35.0473 14.815 35.0473 13.705C35.0473 12.595 35.2573 11.635 35.6773 10.825C36.0973 10.015 36.6973 9.39 37.4773 8.95C38.2673 8.5 39.2123 8.275 40.3123 8.275C41.0223 8.275 41.6923 8.385 42.3223 8.605C42.9623 8.825 43.4873 9.14 43.8973 9.55L43.2673 11.08C42.8173 10.7 42.3573 10.425 41.8873 10.255C41.4173 10.075 40.9123 9.985 40.3723 9.985C39.3023 9.985 38.4873 10.31 37.9273 10.96C37.3673 11.6 37.0873 12.515 37.0873 13.705C37.0873 14.895 37.3673 15.815 37.9273 16.465C38.4873 17.115 39.3023 17.44 40.3723 17.44C40.9123 17.44 41.4173 17.355 41.8873 17.185C42.3573 17.005 42.8173 16.725 43.2673 16.345L43.8973 17.875C43.4873 18.275 42.9623 18.59 42.3223 18.82C41.6923 19.04 41.0223 19.15 40.3123 19.15Z" fill="white"/>
<g filter="url(#filter1_d_665_3687)">
<rect x="49" width="28" height="28" rx="14" fill="white"/>
<path d="M63 5.6665L65.1888 7.26317L67.8983 7.25817L68.7304 9.8365L70.9254 11.4248L70.0833 13.9998L70.9254 16.5748L68.7304 18.1632L67.8983 20.7415L65.1888 20.7365L63 22.3332L60.8113 20.7365L58.1017 20.7415L57.2696 18.1632L55.0746 16.5748L55.9167 13.9998L55.0746 11.4248L57.2696 9.8365L58.1017 7.25817L60.8113 7.26317L63 5.6665Z" stroke="#0F002B" stroke-width="1.66667" stroke-linecap="round" stroke-linejoin="round"/>
<path d="M60.0833 13.9998L62.1666 16.0832L66.3333 11.9165" stroke="#0F002B" stroke-width="1.66667" stroke-linecap="round" stroke-linejoin="round"/>
</g>
</g>
</g>
<defs>
<filter id="filter0_d_665_3687" x="0" y="0" width="81" height="36" filterUnits="userSpaceOnUse" color-interpolation-filters="sRGB">
<feFlood flood-opacity="0" result="BackgroundImageFix"/>
<feColorMatrix in="SourceAlpha" type="matrix" values="0 0 0 0 0 0 0 0 0 0 0 0 0 0 0 0 0 0 127 0" result="hardAlpha"/>
<feOffset dy="4"/>
<feGaussianBlur stdDeviation="2"/>
<feComposite in2="hardAlpha" operator="out"/>
<feColorMatrix type="matrix" values="0 0 0 0 0 0 0 0 0 0 0 0 0 0 0 0 0 0 0.25 0"/>
<feBlend mode="normal" in2="BackgroundImageFix" result="effect1_dropShadow_665_3687"/>
<feBlend mode="normal" in="SourceGraphic" in2="effect1_dropShadow_665_3687" result="shape"/>
</filter>
<filter id="filter1_d_665_3687" x="45" y="-4" width="36" height="36" filterUnits="userSpaceOnUse" color-interpolation-filters="sRGB">
<feFlood flood-opacity="0" result="BackgroundImageFix"/>
<feColorMatrix in="SourceAlpha" type="matrix" values="0 0 0 0 0 0 0 0 0 0 0 0 0 0 0 0 0 0 127 0" result="hardAlpha"/>
<feOffset/>
<feGaussianBlur stdDeviation="2"/>
<feComposite in2="hardAlpha" operator="out"/>
<feColorMatrix type="matrix" values="0 0 0 0 0 0 0 0 0 0 0 0 0 0 0 0 0 0 0.25 0"/>
<feBlend mode="normal" in2="BackgroundImageFix" result="effect1_dropShadow_665_3687"/>
<feBlend mode="normal" in="SourceGraphic" in2="effect1_dropShadow_665_3687" result="shape"/>
</filter>
<clipPath id="clip0_665_3687">
<rect x="4" width="73" height="28" rx="14" fill="white"/>
</clipPath>
</defs>
</svg>
