<svg width="20" height="20" viewBox="0 0 20 20" fill="none" xmlns="http://www.w3.org/2000/svg">
<g id="arcticons:battleforwesnoth">
<path id="Vector" d="M10.075 17.7083C11.95 16.1875 14.8083 14.7458 14.8083 8.59998V4.76665C13.1417 4.76665 11.6875 3.98332 10.0583 3.31665C8.52085 3.95415 6.88752 4.77498 5.12085 4.75832V8.62082C5.18752 14.4792 7.91668 16.25 10.075 17.7083Z" stroke="white" stroke-width="0.8" stroke-linecap="round" stroke-linejoin="round"/>
<path id="Vector_2" d="M13.875 13.6417C15.4833 14.8917 16.3458 16.3292 17.2083 17.6917C15.6995 16.9845 14.351 15.9764 13.2458 14.7292M6.06668 13.5042C4.42501 14.9209 3.26251 16.2542 2.70001 17.6C4.10001 16.7667 5.34168 16.0834 6.62918 14.5459M2.80418 2.4292L5.13751 4.75837M6.10001 3.19587L4.73751 4.35837L3.57501 5.72087M17.1542 2.43337L14.825 4.7667M16.3875 5.7292L15.225 4.3667L13.8625 3.20003M10.075 5.95003C9.13535 6.2826 8.16751 6.52944 7.18335 6.68753C6.98751 10.1334 8.21251 12.5209 10.075 14.35C11.9708 12.5 12.8125 10 12.7833 6.82087C11.8471 6.64724 10.937 6.35459 10.075 5.95003Z" stroke="white" stroke-width="0.8" stroke-linecap="round" stroke-linejoin="round"/>
</g>
</svg>
