<svg width="24" height="24" viewBox="0 0 24 24" fill="none" xmlns="http://www.w3.org/2000/svg">
<g clip-path="url(#clip0_427_653)">
<path d="M3 12C3 14.3869 3.94821 16.6761 5.63604 18.364C7.32387 20.0518 9.61305 21 12 21C14.3869 21 16.6761 20.0518 18.364 18.364C20.0518 16.6761 21 14.3869 21 12C21 9.61305 20.0518 7.32387 18.364 5.63604C16.6761 3.94821 14.3869 3 12 3" stroke="white" stroke-width="2" stroke-linecap="round" stroke-linejoin="round"/>
<path d="M17.2002 12.2C17.2002 11.211 16.907 10.2443 16.3575 9.4221C15.8081 8.59986 15.0272 7.95899 14.1136 7.58056C13.2 7.20212 12.1947 7.1031 11.2247 7.29603C10.2548 7.48895 9.36393 7.96516 8.66466 8.66442C7.9654 9.36368 7.4892 10.2546 7.29627 11.2245C7.10335 12.1944 7.20236 13.1997 7.5808 14.1134C7.95924 15.027 8.6001 15.8079 9.42235 16.3573C10.2446 16.9067 11.2113 17.2 12.2002 17.2" stroke="white" stroke-width="2" stroke-linecap="round" stroke-linejoin="round"/>
</g>
<rect x="0.5" y="0.5" width="23" height="23" stroke="black"/>
<defs>
<clipPath id="clip0_427_653">
<rect width="24" height="24" fill="white"/>
</clipPath>
</defs>
</svg>
