<svg width="15" height="19" viewBox="0 0 15 19" fill="none" xmlns="http://www.w3.org/2000/svg">
<path d="M12.5002 6.66671H11.6668V5.00004C11.6668 2.70004 9.80016 0.833374 7.50016 0.833374C5.20016 0.833374 3.3335 2.70004 3.3335 5.00004V6.66671H2.50016C1.5835 6.66671 0.833496 7.41671 0.833496 8.33337V16.6667C0.833496 17.5834 1.5835 18.3334 2.50016 18.3334H12.5002C13.4168 18.3334 14.1668 17.5834 14.1668 16.6667V8.33337C14.1668 7.41671 13.4168 6.66671 12.5002 6.66671ZM7.50016 14.1667C6.5835 14.1667 5.8335 13.4167 5.8335 12.5C5.8335 11.5834 6.5835 10.8334 7.50016 10.8334C8.41683 10.8334 9.16683 11.5834 9.16683 12.5C9.16683 13.4167 8.41683 14.1667 7.50016 14.1667ZM5.00016 6.66671V5.00004C5.00016 3.61671 6.11683 2.50004 7.50016 2.50004C8.8835 2.50004 10.0002 3.61671 10.0002 5.00004V6.66671H5.00016Z" fill="white"/>
</svg>
