<svg width="20" height="20" viewBox="0 0 20 20" fill="none" xmlns="http://www.w3.org/2000/svg">
<g id="iconamoon:notification-light">
<g id="Group">
<path id="Vector" d="M5.00004 15.8333V8.33325C5.00004 7.00717 5.52682 5.7354 6.46451 4.79772C7.40219 3.86004 8.67396 3.33325 10 3.33325C11.3261 3.33325 12.5979 3.86004 13.5356 4.79772C14.4733 5.7354 15 7.00717 15 8.33325V15.8333M5.00004 15.8333H15M5.00004 15.8333H3.33337M15 15.8333H16.6667M9.16671 18.3333H10.8334" stroke="black" stroke-width="1.25" stroke-linecap="round" stroke-linejoin="round"/>
<path id="Vector_2" d="M10.0001 3.33329C10.4603 3.33329 10.8334 2.9602 10.8334 2.49996C10.8334 2.03972 10.4603 1.66663 10.0001 1.66663C9.53984 1.66663 9.16675 2.03972 9.16675 2.49996C9.16675 2.9602 9.53984 3.33329 10.0001 3.33329Z" stroke="black" stroke-width="1.25"/>
</g>
</g>
</svg>
