<svg width="18" height="18" viewBox="0 0 18 18" fill="none" xmlns="http://www.w3.org/2000/svg">
<g clip-path="url(#clip0_963_4126)">
<path d="M17.3775 9.00027C17.3775 13.6781 13.5853 17.4703 8.9075 17.4703C4.23018 17.4703 0.4375 13.6781 0.4375 9.00027C0.4375 4.32295 4.23018 0.530273 8.9075 0.530273C13.5853 0.530273 17.3775 4.32295 17.3775 9.00027Z" fill="#FFCC4D"/>
<path d="M5.84875 9.94135C6.49845 9.94135 7.02514 9.20399 7.02514 8.2944C7.02514 7.38482 6.49845 6.64746 5.84875 6.64746C5.19905 6.64746 4.67236 7.38482 4.67236 8.2944C4.67236 9.20399 5.19905 9.94135 5.84875 9.94135Z" fill="#664500"/>
<path d="M11.9659 9.94135C12.6156 9.94135 13.1423 9.20399 13.1423 8.2944C13.1423 7.38482 12.6156 6.64746 11.9659 6.64746C11.3162 6.64746 10.7896 7.38482 10.7896 8.2944C10.7896 9.20399 11.3162 9.94135 11.9659 9.94135Z" fill="#664500"/>
<path d="M11.4883 13.6488C11.4831 13.6281 10.9495 11.5883 8.90727 11.5883C6.86506 11.5883 6.33145 13.6281 6.32627 13.6488C6.31457 13.6976 6.31887 13.7488 6.33853 13.7949C6.35819 13.841 6.39217 13.8795 6.43544 13.9048C6.47919 13.9303 6.52988 13.9413 6.58025 13.9362C6.63062 13.9311 6.6781 13.9103 6.71589 13.8766C6.72013 13.8733 7.19257 13.4705 8.90727 13.4705C10.5966 13.4705 11.0798 13.861 11.0982 13.8766C11.1345 13.9115 11.1812 13.9338 11.2313 13.9399C11.2813 13.9461 11.332 13.936 11.3758 13.9109C11.4207 13.8856 11.456 13.8462 11.4763 13.7989C11.4966 13.7515 11.5008 13.6988 11.4883 13.6488Z" fill="#664500"/>
<path d="M5.14306 14.647C5.14306 15.9466 4.08995 16.9997 2.79028 16.9997C1.4906 16.9997 0.4375 15.9466 0.4375 14.647C0.4375 13.3473 2.31972 9.94141 2.79028 9.94141C3.26083 9.94141 5.14306 13.3473 5.14306 14.647Z" fill="#5DADEC"/>
<path d="M14.5539 6.64748C11.9405 6.64748 10.8827 4.59256 10.8389 4.50504C10.7828 4.39353 10.7733 4.26431 10.8125 4.14579C10.8517 4.02728 10.9363 3.92918 11.0478 3.87308C11.1593 3.81699 11.2886 3.80748 11.4071 3.84666C11.5256 3.88585 11.6237 3.9705 11.6798 4.08201C11.7151 4.15071 12.5367 5.70637 14.5539 5.70637C14.6787 5.70637 14.7984 5.75594 14.8867 5.84419C14.9749 5.93244 15.0245 6.05212 15.0245 6.17692C15.0245 6.30172 14.9749 6.42141 14.8867 6.50965C14.7984 6.5979 14.6787 6.64748 14.5539 6.64748ZM3.26059 6.64748C3.1358 6.64748 3.01611 6.5979 2.92786 6.50965C2.83962 6.42141 2.79004 6.30172 2.79004 6.17692C2.79004 6.05212 2.83962 5.93244 2.92786 5.84419C3.01611 5.75594 3.1358 5.70637 3.26059 5.70637C5.65243 5.70637 6.08205 4.23823 6.09946 4.17565C6.16769 3.9272 6.42414 3.77662 6.67306 3.84203C6.92246 3.90743 7.07351 4.15871 7.01092 4.40905C6.98787 4.50033 6.4152 6.64748 3.26059 6.64748Z" fill="#664500"/>
</g>
<defs>
<clipPath id="clip0_963_4126">
<rect width="16.94" height="16.94" fill="white" transform="translate(0.4375 0.530029)"/>
</clipPath>
</defs>
</svg>
