<svg width="20" height="20" viewBox="0 0 20 20" fill="none" xmlns="http://www.w3.org/2000/svg">
<g id="material-symbols:support-agent">
<path id="Vector" d="M9.16663 17.5V15.8333H15.8333V9.91667C15.8333 8.29167 15.2672 6.91306 14.135 5.78083C13.0027 4.64861 11.6244 4.08278 9.99996 4.08333C8.37496 4.08333 6.99635 4.64944 5.86413 5.78167C4.73191 6.91389 4.16607 8.29222 4.16663 9.91667V15H3.33329C2.87496 15 2.48246 14.8367 2.15579 14.51C1.82913 14.1833 1.66607 13.7911 1.66663 13.3333V11.6667C1.66663 11.375 1.73968 11.1006 1.88579 10.8433C2.03191 10.5861 2.23663 10.3814 2.49996 10.2292L2.56246 9.125C2.67357 8.18056 2.94802 7.30556 3.38579 6.5C3.82357 5.69444 4.37218 4.99306 5.03163 4.39583C5.69052 3.79861 6.44691 3.33333 7.30079 3C8.15468 2.66667 9.05441 2.5 9.99996 2.5C10.9444 2.5 11.8402 2.66667 12.6875 3C13.5347 3.33333 14.2916 3.79528 14.9583 4.38583C15.625 4.97583 16.1736 5.67361 16.6041 6.47917C17.0347 7.28472 17.3125 8.15972 17.4375 9.10417L17.5 10.1875C17.7639 10.3125 17.9689 10.5 18.115 10.75C18.2611 11 18.3339 11.2639 18.3333 11.5417V13.4583C18.3333 13.7361 18.2602 14 18.1141 14.25C17.968 14.5 17.7633 14.6875 17.5 14.8125V15.8333C17.5 16.2917 17.3366 16.6842 17.01 17.0108C16.6833 17.3375 16.2911 17.5006 15.8333 17.5H9.16663ZM7.49996 11.6667C7.26385 11.6667 7.06579 11.5867 6.90579 11.4267C6.74579 11.2667 6.66607 11.0689 6.66663 10.8333C6.66663 10.5972 6.74663 10.3992 6.90663 10.2392C7.06663 10.0792 7.26441 9.99944 7.49996 10C7.73607 10 7.93413 10.08 8.09413 10.24C8.25413 10.4 8.33385 10.5978 8.33329 10.8333C8.33329 11.0694 8.25329 11.2675 8.09329 11.4275C7.93329 11.5875 7.73552 11.6672 7.49996 11.6667ZM12.5 11.6667C12.2639 11.6667 12.0658 11.5867 11.9058 11.4267C11.7458 11.2667 11.6661 11.0689 11.6666 10.8333C11.6666 10.5972 11.7466 10.3992 11.9066 10.2392C12.0666 10.0792 12.2644 9.99944 12.5 10C12.7361 10 12.9341 10.08 13.0941 10.24C13.2541 10.4 13.3338 10.5978 13.3333 10.8333C13.3333 11.0694 13.2533 11.2675 13.0933 11.4275C12.9333 11.5875 12.7355 11.6672 12.5 11.6667ZM5.02079 10.375C4.92357 8.90278 5.36802 7.63889 6.35413 6.58333C7.34024 5.52778 8.56941 5 10.0416 5C11.2777 5 12.3647 5.39222 13.3025 6.17667C14.2402 6.96111 14.8061 7.96472 15 9.1875C13.7361 9.17361 12.5727 8.83333 11.51 8.16667C10.4472 7.5 9.63135 6.59722 9.06246 5.45833C8.84024 6.56944 8.37135 7.55917 7.65579 8.4275C6.94024 9.29583 6.06135 9.945 5.02079 10.375Z" fill="black"/>
</g>
</svg>
