<svg width="18" height="18" viewBox="0 0 18 18" fill="none" xmlns="http://www.w3.org/2000/svg">
<g clip-path="url(#clip0_963_4180)">
<path d="M13.2905 8.3846C13.5843 8.14241 15.281 7.09292 16.21 6.20887C16.9353 5.51803 17.2158 3.71419 16.1002 2.83675C14.6497 1.69727 13.2574 2.89366 13.2574 2.89366C13.2574 2.89366 13.1357 2.21738 12.2887 1.82035C11.222 1.32009 9.87075 1.13348 8.62804 1.14937C7.42371 1.16392 6.31467 1.3095 5.33003 1.79256C4.44862 2.22532 4.39569 2.84204 4.39569 2.84204C4.39569 2.84204 3.239 1.73697 1.8216 2.63426C0.405523 3.53288 0.811818 5.33275 1.49339 6.08843C2.38142 7.07307 3.44811 7.57465 3.93248 7.93728C4.41554 8.2999 4.87874 8.64531 4.87874 8.95632C4.87874 9.26733 4.7411 9.33615 4.68817 9.31894C4.63655 9.30174 4.54524 8.99867 4.30834 9.12837C3.98542 9.30703 4.08336 10.027 4.75699 10.0958C5.40944 10.1633 5.53384 9.47379 5.53384 9.47379L5.63707 8.80016L6.70773 9.54261L7.88162 10.51L7.84721 11.3385C7.84721 11.3385 7.7956 11.9777 7.48459 12.5309C7.17358 13.0841 6.67332 13.636 6.67332 13.636L6.65744 14.1363L11.0102 14.033L10.8726 13.55C10.8726 13.55 10.3115 12.9333 9.97398 12.2715C9.73311 11.7977 9.69473 11.32 9.69473 11.32L9.68414 10.1315L11.9433 8.74722C11.9433 8.74722 12.1854 8.9378 12.151 9.00661C12.1166 9.07543 12.1087 9.78082 12.6513 10.0429C13.1873 10.3023 13.6187 9.97405 13.5671 9.52408C13.5155 9.07543 13.2389 9.23028 13.1529 9.29909C13.0669 9.36791 12.8763 9.38512 12.8247 9.12572C12.7717 8.86898 12.9967 8.62679 13.2905 8.3846ZM2.16967 5.94153L1.6522 4.36664L2.27819 3.54743L2.97961 3.3423C2.97961 3.3423 3.87558 4.01064 3.90734 4.0649C3.9391 4.11916 4.47906 5.22952 4.47906 5.22952L5.19107 7.80758L2.16967 5.94153ZM12.3416 8.01271C12.3522 7.95845 13.0099 5.2507 13.0099 5.2507C13.0099 5.21894 13.4731 5.00322 13.4731 4.95954C13.4731 4.91587 14.3149 3.54611 14.3149 3.54611L15.7177 3.60037L16.0089 4.9913L15.3074 6.14534C15.3088 6.14667 12.331 8.06565 12.3416 8.01271Z" fill="#FEC417"/>
<path d="M16.3081 4.58501C16.2049 3.35156 14.9847 3.05644 14.4831 3.2351C13.9815 3.41376 13.656 3.74859 13.5448 4.22503C13.4548 4.61015 13.3648 4.8669 13.2616 4.9066C13.1478 4.94895 13.0432 4.93175 13.0432 4.93175C13.0432 4.93175 13.0247 4.09798 13.03 3.76183C13.0432 3.06835 13.255 2.89101 13.255 2.89101C13.255 2.89101 13.21 2.65676 13.12 2.52706C13.03 2.39869 12.8632 2.23193 12.8632 2.23193C12.8632 2.23193 12.9016 2.56544 12.7349 2.64352C12.5681 2.72161 12.3881 2.60514 12.3881 2.60514L12.5549 3.29862C12.5549 3.29862 12.2849 6.75544 12.2597 6.8322C12.2346 6.90896 11.2195 8.66913 11.2195 8.66913C11.2195 8.66913 10.6279 9.22233 10.3461 9.35071C10.0628 9.47908 9.81932 9.81391 8.72749 9.82582C7.63565 9.83905 6.69734 8.9775 6.69734 8.9775L5.75902 8.07756L5.06554 6.03417L4.96231 3.9524L5.00598 3.1954L5.03642 2.87909L4.98745 2.71896C4.98745 2.71896 4.89746 2.80895 4.73071 2.77057C4.56395 2.73219 4.4991 2.51383 4.4991 2.51383C4.4991 2.51383 4.43426 2.61705 4.42235 2.66867C4.40911 2.72028 4.39588 2.83939 4.39588 2.83939C4.39588 2.83939 4.57586 3.02864 4.61424 3.29862C4.65262 3.56861 4.60101 4.68691 4.40911 4.66044C4.21589 4.6353 4.27941 3.69698 3.54755 3.337C2.91363 3.02467 1.96737 3.11864 1.58093 3.90211C1.1958 4.68559 1.4777 5.61067 2.686 6.47223C3.89429 7.33379 5.18068 8.05771 5.38449 8.74854C5.628 9.5704 5.07612 10.0587 5.07612 10.0587C5.07612 10.0587 5.47713 10.0032 5.67432 9.57304C5.73784 9.43408 5.76166 9.2316 5.77093 9.11116C6.22751 9.70671 6.83497 10.2109 7.63962 10.4545C7.94401 10.559 8.28678 10.6119 8.76322 10.6119C8.83204 10.6119 8.89954 10.6093 8.96703 10.6066C9.5242 10.5868 10.0006 10.4822 10.4625 10.2533C11.0859 9.96478 11.5689 9.52408 11.9421 9.02382C11.9315 9.14293 12.0043 9.43937 12.1433 9.67362C12.3868 10.0852 12.7984 10.1104 12.7984 10.1104C12.7984 10.1104 12.2333 9.77685 12.3484 8.98014C12.4636 8.18343 12.9903 7.90022 13.787 7.38672C14.5863 6.87191 16.41 5.81845 16.3081 4.58501ZM3.25243 6.33327C2.89378 6.08049 2.26514 5.74301 2.00575 5.2282C1.66033 4.54133 1.9409 3.71154 2.59733 3.60963C3.96047 3.39524 3.98561 5.08791 4.0756 5.29305C4.1656 5.49818 4.42235 5.51141 4.42235 5.51141C4.42235 5.51141 4.43161 5.62523 4.46867 5.84492C4.46999 5.85154 4.47131 5.85683 4.47131 5.86345L4.47528 5.8833C4.50043 6.03285 4.53616 6.21945 4.58645 6.43252L4.59042 6.44841C4.61821 6.56884 4.64733 6.68265 4.67777 6.78721C4.73865 7.0069 4.81276 7.24379 4.90408 7.4873C4.77173 7.39731 4.0134 6.87191 3.25243 6.33327ZM15.6014 5.38172C15.3169 5.84227 14.7412 6.18504 14.3164 6.47355C13.7685 6.84544 12.9532 7.40393 12.7229 7.56009C12.7759 7.41981 12.8222 7.28085 12.8646 7.14453C12.9334 6.96455 13.0062 6.74486 13.0565 6.50796C13.1888 5.88594 13.2113 5.34201 13.2113 5.34201C13.2113 5.34201 13.4813 5.41877 13.648 5.23878C13.8148 5.0588 13.877 4.50031 14.0332 4.23694C14.2767 3.82535 14.765 3.40185 15.4982 3.91535C15.9217 4.21312 15.9376 4.83646 15.6014 5.38172ZM8.44692 11.0262L9.19466 11.0169C9.19466 11.0169 9.21451 11.8335 9.3323 12.4423C9.45009 13.0524 9.60757 13.73 9.60757 13.73C9.60757 13.73 8.0843 14.2408 8.09356 13.6903C8.10283 13.1397 8.32913 12.0677 8.32913 12.0677C8.32913 12.0677 8.46677 10.7906 8.44692 11.0262Z" fill="#FEAD3A"/>
<path d="M7.1922 2.54037C7.1922 2.54037 8.02464 2.44641 8.79885 2.45832C9.57306 2.47023 10.3698 2.62243 10.3698 2.62243C10.3698 2.62243 10.3234 5.21372 10.1818 6.66817C10.0416 8.12263 9.49101 9.21182 9.34411 9.52018C9.2025 9.81928 9.09927 9.97941 9.09927 9.97941L8.35285 9.89207L7.0625 7.30078L7.1922 2.54037Z" fill="#FEAD3A"/>
<path d="M6.19565 2.92814C6.19565 2.92814 6.4299 2.81035 6.77002 2.68198C7.07838 2.56552 7.3563 2.52979 7.3563 2.52979C7.3563 2.52979 7.36424 4.24761 7.39204 5.47311C7.41586 6.5173 7.8023 8.22851 7.99023 8.68642C8.17816 9.14433 8.51696 9.8431 8.51696 9.8431C8.51696 9.8431 7.83539 9.74517 7.41586 9.21314C7.19484 8.93258 6.16124 6.76214 6.12551 5.3315C6.08977 3.90087 6.23006 2.89241 6.19565 2.92814Z" fill="#FFEFAB"/>
<path d="M5.80807 3.1266C5.78425 3.19675 5.59765 4.67503 5.89013 6.04611C6.1826 7.41719 6.61537 8.35551 6.90123 8.72739C7.15533 9.05693 7.32076 9.21309 7.41473 9.21309C7.50869 9.21309 7.02828 8.07626 6.80462 7.18426C6.58228 6.29359 6.4645 5.22558 6.44068 4.69885C6.41685 4.1708 6.39435 2.8103 6.39435 2.8103C6.39435 2.8103 6.13628 2.92809 6.07805 2.9625C6.01982 2.99823 5.80807 3.1266 5.80807 3.1266Z" fill="#FFFCFD"/>
<path d="M7.49658 13.6334C7.49658 13.6334 8.00081 12.8129 8.10669 12.1909C8.21256 11.5689 8.27079 11.0183 8.27079 11.0183L8.58312 11.0315C8.58312 11.0315 8.55268 11.9328 8.51695 12.5429C8.48122 13.153 8.37667 13.7512 8.37667 13.7512L7.49658 13.6334Z" fill="#FFEFAB"/>
<path d="M7.88436 10.5101C7.88436 10.5101 8.11861 10.2812 8.76312 10.2812C9.40763 10.2812 9.68423 10.5287 9.68423 10.5287L9.70144 11.324C9.70144 11.324 9.27264 11.1904 8.75121 11.1838C8.31712 11.1785 7.84995 11.3399 7.84995 11.3399L7.88436 10.5101ZM5.06941 2.61053C5.17793 2.50994 6.21815 1.72912 8.68107 1.70794C11.3306 1.68412 12.3245 2.45171 12.3867 2.49406C12.4568 2.54038 12.5389 2.75213 12.5045 2.8461C12.4687 2.94006 12.3986 2.97447 12.2001 2.89242C12.0002 2.81036 11.0156 2.09174 8.64666 2.16585C6.37167 2.23599 5.40688 2.92815 5.30498 2.98638C5.22292 3.0327 5.07073 3.04461 5.00059 2.95065C4.92912 2.85801 4.99926 2.6767 5.06941 2.61053ZM12.5045 3.1624C12.2001 3.18622 12.4105 5.63723 11.766 7.17241C11.0752 8.8148 10.1938 9.2833 10.2295 9.37726C10.2652 9.47122 11.1281 9.21051 11.672 8.43894C12.1763 7.72429 12.4807 7.09036 12.6223 6.24601C12.7612 5.40165 12.8433 3.13593 12.5045 3.1624ZM5.00456 3.44297C4.9278 3.439 5.00588 4.66185 4.88148 5.19917C4.83383 5.40562 4.71737 5.44797 4.70546 5.4943C4.69355 5.54062 4.96088 7.11418 5.40953 7.80502C5.84362 8.47335 6.69988 9.3058 6.84016 9.16551C6.98045 9.02523 6.21815 8.55541 5.70333 7.53504C5.40688 6.95008 5.10514 6.06867 5.09323 5.06021C5.08529 4.3932 5.16866 3.45223 5.00456 3.44297Z" fill="#D1701C"/>
<path d="M11.9208 15.4465L11.9195 13.5553H5.84886C5.86739 13.5553 5.85283 15.0931 5.85019 15.4531H4.9873V16.8229H12.6963V15.4531L11.9208 15.4465Z" fill="#865C50"/>
<path d="M7.7943 14.5492C7.64475 14.5425 7.47271 14.573 7.46609 14.7583C7.45947 14.9435 7.45947 15.4795 7.45947 15.5814C7.45947 15.6833 7.54285 15.772 7.75195 15.7786C7.96106 15.7852 9.92371 15.7786 10.0614 15.7786C10.199 15.7786 10.2705 15.6595 10.2757 15.5404C10.2824 15.4213 10.2691 14.9197 10.2691 14.7834C10.2691 14.5571 10.0666 14.5571 9.92901 14.5571C9.78078 14.5544 7.7943 14.5492 7.7943 14.5492Z" fill="#FCC219"/>
</g>
<defs>
<clipPath id="clip0_963_4180">
<rect width="16.94" height="16.94" fill="white" transform="translate(0.4375 0.530029)"/>
</clipPath>
</defs>
</svg>
