<svg width="18" height="18" viewBox="0 0 18 18" fill="none" xmlns="http://www.w3.org/2000/svg">
<path d="M10.5082 1.38362C10.6499 1.13362 10.5082 0.800288 10.2165 0.766955C8.03319 0.458622 5.79986 1.00029 4.01653 2.31695C3.85819 2.44195 3.80819 2.67529 3.91653 2.85862L6.42486 7.20862C6.58319 7.48362 6.98319 7.48362 7.14986 7.20862L10.5082 1.38362ZM16.7499 5.94196C15.9332 3.88362 14.3165 2.22529 12.2915 1.35862C12.0999 1.27529 11.8749 1.35862 11.7665 1.54195L9.25819 5.88362C9.09986 6.15029 9.29986 6.50029 9.62486 6.50029H16.3582C16.6499 6.50029 16.8582 6.20862 16.7499 5.94196ZM16.8082 7.33362H11.6415C11.3249 7.33362 11.1165 7.68362 11.2832 7.95862L14.8332 14.117C14.9749 14.367 15.3332 14.4086 15.5165 14.1836C16.9665 12.367 17.5832 9.99195 17.2249 7.69195C17.211 7.59169 17.1611 7.49993 17.0843 7.43394C17.0076 7.36794 16.9094 7.33227 16.8082 7.33362ZM2.48319 3.82529C1.76788 4.73201 1.24703 5.77637 0.953118 6.89325C0.659202 8.01013 0.598521 9.17559 0.77486 10.317C0.79986 10.517 0.983194 10.667 1.19153 10.667H6.35819C6.67486 10.667 6.88319 10.317 6.71653 10.042L3.16653 3.89195C3.01653 3.64195 2.65819 3.60029 2.48319 3.82529ZM1.24986 12.0586C2.06653 14.117 3.68319 15.7753 5.70819 16.642C5.89986 16.7253 6.12486 16.642 6.23319 16.4586L8.74153 12.117C8.77747 12.0537 8.7963 11.9822 8.79616 11.9095C8.79602 11.8367 8.77692 11.7653 8.74074 11.7022C8.70457 11.6391 8.65256 11.5865 8.58986 11.5496C8.52716 11.5128 8.45592 11.4929 8.38319 11.492H1.64153C1.34986 11.5003 1.14153 11.792 1.24986 12.0586ZM7.77486 17.242C9.95819 17.5503 12.1915 17.0086 13.9749 15.692C14.1415 15.567 14.1915 15.3253 14.0832 15.142L11.5749 10.792C11.5375 10.7291 11.4845 10.677 11.4209 10.6409C11.3573 10.6047 11.2855 10.5857 11.2124 10.5857C11.1392 10.5857 11.0674 10.6047 11.0038 10.6409C10.9403 10.677 10.8872 10.7291 10.8499 10.792L7.48319 16.617C7.34153 16.867 7.49153 17.2003 7.77486 17.242Z" fill="#0F002B"/>
</svg>
