<svg width="20" height="20" viewBox="0 0 20 20" fill="none" xmlns="http://www.w3.org/2000/svg">
<g id="twemoji:money-mouth-face" clip-path="url(#clip0_69_665)">
<path id="Vector" d="M20 10C20 15.5228 15.5228 20 10 20C4.47778 20 0 15.5228 0 10C0 4.47778 4.47778 0 10 0C15.5228 0 20 4.47778 20 10Z" fill="#FFCC4D"/>
<path id="Vector_2" d="M3.88892 11.8127C3.88892 14.015 6.44225 16.8127 10 16.8127C13.5578 16.8127 16.1111 14.035 16.1111 11.8127C16.1111 11.8127 10.3706 13.3439 3.88892 11.8127Z" fill="#664500"/>
<path id="Vector_3" d="M6.66663 12.7794V16.6466C6.66663 18.3133 7.77774 19.98 9.99996 19.98C12.2222 19.98 13.3333 18.3133 13.3333 16.6466V12.8022C9.83829 13.52 6.66663 12.7794 6.66663 12.7794Z" fill="#5D9040"/>
<path id="Vector_4" d="M6.8244 6.85C6.4044 6.68778 6.00718 6.53444 6.00718 6.31222C6.00718 5.94611 6.49829 5.92722 6.59662 5.92722C6.94384 5.92722 7.11662 6.05722 7.26884 6.17222C7.38551 6.26055 7.50662 6.35167 7.67496 6.35167C7.98829 6.35167 8.13107 6.13111 8.13107 5.92611C8.13107 5.51722 7.62996 5.22833 7.09884 5.10722V4.88889C7.09265 4.7547 7.03498 4.62806 6.93783 4.53528C6.84068 4.44251 6.71151 4.39075 6.57718 4.39075C6.44284 4.39075 6.31368 4.44251 6.21653 4.53528C6.11937 4.62806 6.06171 4.7547 6.05551 4.88889V5.12555C5.41996 5.31055 5.03051 5.77778 5.03051 6.36722C5.03051 7.09555 5.74884 7.39444 6.38273 7.65778C6.83662 7.84667 7.26551 8.025 7.26551 8.30333C7.26551 8.50667 7.00996 8.72667 6.59718 8.72667C6.18051 8.72667 5.94162 8.56 5.73051 8.41333C5.58496 8.31167 5.44718 8.21555 5.28273 8.21555C5.04384 8.21555 4.85718 8.41667 4.85718 8.67333C4.85718 9.05055 5.3744 9.42667 6.05551 9.55889V9.82C6.05551 9.95835 6.11047 10.091 6.2083 10.1889C6.30614 10.2867 6.43882 10.3417 6.57718 10.3417C6.71553 10.3417 6.84822 10.2867 6.94605 10.1889C7.04388 10.091 7.09884 9.95835 7.09884 9.82L7.09607 9.54333C7.81607 9.36833 8.24162 8.86444 8.24162 8.17722C8.24218 7.39722 7.45607 7.09389 6.8244 6.85ZM14.83 8.18667C14.83 7.40667 14.0438 7.10333 13.4122 6.85944C12.9922 6.69722 12.5955 6.54389 12.5955 6.32167C12.5955 5.95555 13.0866 5.93667 13.185 5.93667C13.5322 5.93667 13.7044 6.06667 13.8572 6.18167C13.9744 6.27 14.095 6.36111 14.2627 6.36111C14.5766 6.36111 14.7194 6.14055 14.7194 5.93555C14.7194 5.52611 14.2183 5.23778 13.6872 5.11667V4.89889C13.6828 4.76341 13.6258 4.63495 13.5284 4.54068C13.431 4.4464 13.3008 4.3937 13.1652 4.3937C13.0297 4.3937 12.8994 4.4464 12.802 4.54068C12.7046 4.63495 12.6477 4.76341 12.6433 4.89889V5.13555C12.0083 5.32055 11.6183 5.78778 11.6183 6.37722C11.6183 7.10555 12.3366 7.40444 12.9705 7.66778C13.4244 7.85667 13.8533 8.035 13.8533 8.31333C13.8533 8.51666 13.5983 8.73667 13.1855 8.73667C12.7688 8.73667 12.53 8.57 12.3194 8.42333C12.1733 8.32167 12.0355 8.22555 11.8716 8.22555C11.6322 8.22555 11.4455 8.42667 11.4455 8.68333C11.4455 9.06055 11.9627 9.43667 12.6433 9.56889V9.83C12.6433 9.96843 12.6983 10.1012 12.7962 10.1991C12.894 10.297 13.0268 10.3519 13.1652 10.3519C13.3037 10.3519 13.4364 10.297 13.5343 10.1991C13.6322 10.1012 13.6872 9.96843 13.6872 9.83L13.6855 9.55333C14.405 9.37722 14.83 8.87389 14.83 8.18667Z" fill="#664500"/>
<path id="Vector_5" d="M11.65 17.2606C11.65 16.5006 10.8839 16.2045 10.2683 15.9667C9.85886 15.8089 9.47164 15.6589 9.47164 15.4428C9.47164 15.0856 9.94998 15.0678 10.0461 15.0678C10.3844 15.0678 10.5528 15.195 10.7016 15.3067C10.8155 15.3928 10.9339 15.4817 11.0978 15.4817C11.4033 15.4817 11.5428 15.2662 11.5428 15.0667C11.5428 14.6684 11.0544 14.3867 10.5361 14.2684V14.0556C10.53 13.9248 10.4737 13.8013 10.3789 13.7108C10.2842 13.6204 10.1582 13.5699 10.0272 13.5699C9.8962 13.5699 9.77024 13.6204 9.67548 13.7108C9.58071 13.8013 9.52442 13.9248 9.51831 14.0556V14.2862C8.89886 14.4662 8.51886 14.9223 8.51886 15.4967C8.51886 16.2067 9.21942 16.4984 9.8372 16.7551C10.28 16.9389 10.6978 17.1128 10.6978 17.3839C10.6978 17.5823 10.4489 17.7967 10.0461 17.7967C9.63998 17.7967 9.4072 17.6345 9.20164 17.4906C9.05998 17.3917 8.92553 17.2978 8.76553 17.2978C8.53275 17.2978 8.34998 17.4945 8.34998 17.7445C8.34998 18.1128 8.85386 18.4789 9.51775 18.6078V18.8628C9.51775 18.9978 9.57137 19.1272 9.6668 19.2227C9.76224 19.3181 9.89168 19.3717 10.0266 19.3717C10.1616 19.3717 10.291 19.3181 10.3865 19.2227C10.4819 19.1272 10.5355 18.9978 10.5355 18.8628L10.5339 18.5928C11.2355 18.4212 11.65 17.9301 11.65 17.2606Z" fill="white"/>
</g>
<defs>
<clipPath id="clip0_69_665">
<rect width="20" height="20" fill="white"/>
</clipPath>
</defs>
</svg>
