<svg width="20" height="20" viewBox="0 0 20 20" fill="none" xmlns="http://www.w3.org/2000/svg">
<g id="logos:whatsapp-icon" clip-path="url(#clip0_69_791)">
<path id="Vector" d="M0.426036 9.88029C0.425571 11.5607 0.864641 13.2014 1.69952 14.6477L0.346191 19.5889L5.40294 18.263C6.80156 19.0244 8.36863 19.4234 9.96107 19.4235H9.96526C15.2222 19.4235 19.5015 15.1457 19.5038 9.88781C19.5048 7.33998 18.5135 4.94416 16.7124 3.14168C14.9116 1.33936 12.5167 0.346256 9.96487 0.345093C4.70728 0.345093 0.428284 4.62261 0.426114 9.88029" fill="url(#paint0_linear_69_791)"/>
<path id="Vector_2" d="M0.0854482 9.87721C0.0849055 11.6181 0.539712 13.3175 1.40436 14.8155L0.00250244 19.9339L5.24056 18.5605C6.68382 19.3474 8.30878 19.7622 9.96227 19.7629H9.96653C15.4121 19.7629 19.8451 15.3312 19.8475 9.88512C19.8484 7.24574 18.8214 4.7638 16.956 2.89674C15.0903 1.02992 12.6097 0.00108527 9.96653 0C4.52002 0 0.0876187 4.43101 0.0854482 9.87721ZM3.20483 14.5575L3.00925 14.2471C2.18708 12.9398 1.75312 11.4291 1.75374 9.87783C1.75553 5.35109 5.43956 1.66822 9.96963 1.66822C12.1634 1.66915 14.2251 2.52434 15.7758 4.07597C17.3265 5.62775 18.1797 7.69054 18.1792 9.8845C18.1772 14.4112 14.493 18.0946 9.96653 18.0946H9.96328C8.4894 18.0938 7.0439 17.698 5.78328 16.95L5.48328 16.7721L2.37491 17.5871L3.20483 14.5574V14.5575Z" fill="url(#paint1_linear_69_791)"/>
<path id="Vector_3" d="M7.49696 5.74789C7.312 5.3368 7.11735 5.32851 6.94146 5.3213C6.79743 5.31509 6.63278 5.31556 6.46828 5.31556C6.30363 5.31556 6.03611 5.3775 5.80999 5.6244C5.58363 5.87153 4.9458 6.46874 4.9458 7.68339C4.9458 8.89812 5.83053 10.072 5.95386 10.2369C6.07735 10.4015 7.66185 12.9739 10.1713 13.9635C12.2569 14.7859 12.6813 14.6223 13.1339 14.5811C13.5867 14.54 14.5947 13.984 14.8004 13.4075C15.0062 12.8311 15.0062 12.337 14.9445 12.2337C14.8828 12.1308 14.7181 12.069 14.4712 11.9456C14.2242 11.8221 13.0105 11.2249 12.7842 11.1425C12.5578 11.0601 12.3932 11.019 12.2286 11.2663C12.0639 11.5131 11.5911 12.069 11.447 12.2337C11.3031 12.3987 11.159 12.4193 10.9122 12.2958C10.6651 12.1719 9.86999 11.9115 8.92665 11.0705C8.1927 10.4161 7.6972 9.60796 7.55316 9.36075C7.40913 9.11393 7.53774 8.98013 7.66154 8.85711C7.77247 8.74649 7.90851 8.56882 8.03208 8.42471C8.15518 8.28052 8.19627 8.17765 8.27859 8.013C8.36099 7.8482 8.31975 7.70401 8.25813 7.58052C8.19627 7.45703 7.7165 6.23603 7.49696 5.74789Z" fill="white"/>
</g>
<defs>
<linearGradient id="paint0_linear_69_791" x1="958.226" y1="1924.73" x2="958.226" y2="0.345093" gradientUnits="userSpaceOnUse">
<stop stop-color="#1FAF38"/>
<stop offset="1" stop-color="#60D669"/>
</linearGradient>
<linearGradient id="paint1_linear_69_791" x1="992.251" y1="1993.39" x2="992.251" y2="0" gradientUnits="userSpaceOnUse">
<stop stop-color="#F9F9F9"/>
<stop offset="1" stop-color="white"/>
</linearGradient>
<clipPath id="clip0_69_791">
<rect width="19.85" height="20" fill="white"/>
</clipPath>
</defs>
</svg>
