<svg width="16" height="16" viewBox="0 0 16 16" fill="none" xmlns="http://www.w3.org/2000/svg">
<g id="fluent:mail-read-48-regular">
<path id="Vector" d="M8.20967 2.0566L13.1303 4.92093C13.3949 5.07492 13.6144 5.29563 13.7671 5.561C13.9197 5.82638 14 6.12714 14 6.43326V11.5833C14 11.959 13.8507 12.3193 13.5851 12.585C13.3194 12.8507 12.9591 12.9999 12.5833 12.9999H3.41667C3.04094 12.9999 2.68061 12.8507 2.41493 12.585C2.14926 12.3193 2 11.959 2 11.5833V6.43326C2.00002 6.12714 2.08034 5.82638 2.23295 5.561C2.38555 5.29563 2.6051 5.07492 2.86967 4.92093L7.79 2.0566C7.85366 2.01953 7.926 2 7.99967 2C8.07333 2 8.14601 2.01953 8.20967 2.0566ZM13.1667 6.74393L8.20867 9.6106C8.15246 9.6431 8.08943 9.66201 8.02461 9.66583C7.95979 9.66965 7.89497 9.65827 7.83533 9.6326L7.79133 9.6106L2.83333 6.74426V11.5833C2.83333 11.9056 3.09467 12.1666 3.41667 12.1666H12.5833C12.738 12.1666 12.8864 12.1051 12.9958 11.9957C13.1052 11.8863 13.1667 11.738 13.1667 11.5833V6.74393ZM8 2.8986L3.289 5.64093C3.18179 5.70328 3.08835 5.78675 3.01433 5.88626L8 8.76859L12.9857 5.88626C12.9117 5.78673 12.8182 5.70326 12.711 5.64093L8 2.8986Z" fill="#0F002B"/>
</g>
</svg>
