<svg width="20" height="20" viewBox="0 0 20 20" fill="none" xmlns="http://www.w3.org/2000/svg">
<g id="cil:bank" clip-path="url(#clip0_83_1945)">
<path id="Vector" d="M9.67809 0.561035L0.625 4.91994V7.18768H19.375V4.90791L9.67809 0.561035ZM18.125 5.93768H1.875V5.70541L9.69691 1.93932L18.125 5.71744V5.93768ZM1.875 15.9377H18.125V17.1877H1.875V15.9377ZM0.625 18.1252H19.375V19.3752H0.625V18.1252ZM2.1875 8.43768H3.4375V14.6877H2.1875V8.43768ZM16.5625 8.43768H17.8125V14.6877H16.5625V8.43768ZM12.8125 8.43768H14.0625V14.6877H12.8125V8.43768ZM5.9375 8.43768H7.1875V14.6877H5.9375V8.43768ZM9.375 8.43768H10.625V14.6877H9.375V8.43768Z" fill="#0F002B"/>
</g>
<defs>
<clipPath id="clip0_83_1945">
<rect width="20" height="20" fill="white"/>
</clipPath>
</defs>
</svg>
