<svg width="28" height="28" viewBox="0 0 28 28" fill="none" xmlns="http://www.w3.org/2000/svg">
<g id="ep:back">
<path id="Vector" d="M6.125 13.125H23.625C23.8571 13.125 24.0796 13.2172 24.2437 13.3813C24.4078 13.5454 24.5 13.7679 24.5 14C24.5 14.2321 24.4078 14.4546 24.2437 14.6187C24.0796 14.7828 23.8571 14.875 23.625 14.875H6.125C5.89294 14.875 5.67038 14.7828 5.50628 14.6187C5.34219 14.4546 5.25 14.2321 5.25 14C5.25 13.7679 5.34219 13.5454 5.50628 13.3813C5.67038 13.2172 5.89294 13.125 6.125 13.125Z" fill="#0F002B"/>
<path id="Vector_2" d="M6.48723 14.0001L13.7445 21.2556C13.9088 21.4199 14.0011 21.6428 14.0011 21.8751C14.0011 22.1075 13.9088 22.3303 13.7445 22.4946C13.5802 22.6589 13.3573 22.7512 13.125 22.7512C12.8926 22.7512 12.6698 22.6589 12.5055 22.4946L4.63048 14.6196C4.54899 14.5383 4.48434 14.4418 4.44023 14.3355C4.39612 14.2292 4.37341 14.1152 4.37341 14.0001C4.37341 13.885 4.39612 13.7711 4.44023 13.6648C4.48434 13.5585 4.54899 13.4619 4.63048 13.3806L12.5055 5.50563C12.6698 5.34133 12.8926 5.24902 13.125 5.24902C13.3573 5.24902 13.5802 5.34133 13.7445 5.50563C13.9088 5.66993 14.0011 5.89277 14.0011 6.12513C14.0011 6.35749 13.9088 6.58033 13.7445 6.74463L6.48723 14.0001Z" fill="#0F002B"/>
</g>
</svg>
