<svg width="28" height="28" viewBox="0 0 28 28" fill="none" xmlns="http://www.w3.org/2000/svg">
<g id="ic:outline-info">
<path id="Vector" d="M12.8333 8.16671H15.1667V10.5H12.8333V8.16671ZM12.8333 12.8334H15.1667V19.8334H12.8333V12.8334ZM14 2.33337C7.56001 2.33337 2.33334 7.56004 2.33334 14C2.33334 20.44 7.56001 25.6667 14 25.6667C20.44 25.6667 25.6667 20.44 25.6667 14C25.6667 7.56004 20.44 2.33337 14 2.33337ZM14 23.3334C8.85501 23.3334 4.66668 19.145 4.66668 14C4.66668 8.85504 8.85501 4.66671 14 4.66671C19.145 4.66671 23.3333 8.85504 23.3333 14C23.3333 19.145 19.145 23.3334 14 23.3334Z" fill="#0F002B"/>
</g>
</svg>
