<svg width="21" height="21" viewBox="0 0 21 21" fill="none" xmlns="http://www.w3.org/2000/svg">
<g id="mdi:history">
<path id="Vector" d="M11.75 7.41667H10.5V11.5833L14.0667 13.7L14.6667 12.6917L11.75 10.9583V7.41667ZM11.3333 3.25C9.34422 3.25 7.43656 4.04018 6.03004 5.4467C4.62352 6.85322 3.83334 8.76088 3.83334 10.75H1.33334L4.63334 14.1083L8.00001 10.75H5.50001C5.50001 9.2029 6.11459 7.71917 7.20855 6.62521C8.30252 5.53125 9.78625 4.91667 11.3333 4.91667C12.8804 4.91667 14.3642 5.53125 15.4581 6.62521C16.5521 7.71917 17.1667 9.2029 17.1667 10.75C17.1667 12.2971 16.5521 13.7808 15.4581 14.8748C14.3642 15.9688 12.8804 16.5833 11.3333 16.5833C9.72501 16.5833 8.26668 15.925 7.21668 14.8667L6.03334 16.05C6.72624 16.7505 7.55182 17.3059 8.46184 17.6836C9.37186 18.0614 10.348 18.2539 11.3333 18.25C13.3225 18.25 15.2301 17.4598 16.6366 16.0533C18.0432 14.6468 18.8333 12.7391 18.8333 10.75C18.8333 8.76088 18.0432 6.85322 16.6366 5.4467C15.2301 4.04018 13.3225 3.25 11.3333 3.25Z" fill="white"/>
</g>
</svg>
