<svg width="33" height="32" viewBox="0 0 33 32" fill="none" xmlns="http://www.w3.org/2000/svg">
<g id="twemoji:flag-india" clip-path="url(#clip0_431_1586)">
<path id="Vector" d="M0.5 24C0.5 24.943 0.874602 25.8473 1.5414 26.5141C2.20819 27.1809 3.11256 27.5555 4.05556 27.5555H28.9444C29.8874 27.5555 30.7918 27.1809 31.4586 26.5141C32.1254 25.8473 32.5 24.943 32.5 24V19.5555H0.5V24Z" fill="#138808"/>
<path id="Vector_2" d="M32.5 12.4445V8.00001C32.5 7.05702 32.1254 6.15265 31.4586 5.48586C30.7918 4.81906 29.8874 4.44446 28.9444 4.44446H4.05556C3.11256 4.44446 2.20819 4.81906 1.5414 5.48586C0.874602 6.15265 0.5 7.05702 0.5 8.00001L0.5 12.4445H32.5Z" fill="#FF9933"/>
<path id="Vector_3" d="M0.5 12.1484H32.5V19.8524H0.5V12.1484Z" fill="#F7F7F7"/>
<path id="Vector_4" d="M16.5 19.5556C18.4637 19.5556 20.0556 17.9637 20.0556 16C20.0556 14.0363 18.4637 12.4445 16.5 12.4445C14.5363 12.4445 12.9445 14.0363 12.9445 16C12.9445 17.9637 14.5363 19.5556 16.5 19.5556Z" fill="#000080"/>
<path id="Vector_5" d="M16.5 19C18.1569 19 19.5 17.6569 19.5 16C19.5 14.3431 18.1569 13 16.5 13C14.8431 13 13.5 14.3431 13.5 16C13.5 17.6569 14.8431 19 16.5 19Z" fill="#F7F7F7"/>
<path id="Vector_6" d="M16.5889 14.8889L16.5 15.4666L16.4111 14.8889L16.5 13.1555L16.5889 14.8889ZM15.764 13.2524L16.1267 14.9493L16.3622 15.4844L16.2982 14.904L15.764 13.2524ZM15.0778 13.5369L15.8671 15.0817L16.2333 15.5377L16.0218 14.9929L15.0778 13.5369ZM14.4884 13.9884L15.6511 15.2773L16.1231 15.6231L15.7773 15.1511L14.4884 13.9884ZM14.0369 14.5777L15.4929 15.5217L16.0378 15.7333L15.5818 15.3671L14.0369 14.5777ZM13.7524 15.264L15.404 15.7982L15.9844 15.8622L15.4493 15.6266L13.7524 15.264ZM13.6555 16L15.3889 16.0889L15.9667 16L15.3889 15.9111L13.6555 16ZM13.7524 16.736L15.4493 16.3733L15.9844 16.1377L15.404 16.2017L13.7524 16.736ZM14.0369 17.4222L15.5818 16.6329L16.0378 16.2666L15.4929 16.4782L14.0369 17.4222ZM14.4884 18.0115L15.7773 16.8489L16.1231 16.3769L15.6511 16.7226L14.4884 18.0115ZM15.0778 18.4631L16.0218 17.0071L16.2333 16.4622L15.8671 16.9182L15.0778 18.4631ZM15.764 18.7475L16.2982 17.096L16.3622 16.5155L16.1267 17.0506L15.764 18.7475ZM16.5 18.8444L16.5889 17.1111L16.5 16.5333L16.4111 17.1111L16.5 18.8444ZM17.236 18.7475L16.8733 17.0506L16.6378 16.5155L16.7018 17.096L17.236 18.7475ZM17.9222 18.4631L17.1329 16.9182L16.7667 16.4622L16.9782 17.0071L17.9222 18.4631ZM18.5115 18.0115L17.3489 16.7226L16.8769 16.3769L17.2227 16.8489L18.5115 18.0115ZM18.9631 17.4222L17.5071 16.4782L16.9622 16.2666L17.4182 16.6329L18.9631 17.4222ZM19.2475 16.736L17.596 16.2017L17.0155 16.1377L17.5507 16.3733L19.2475 16.736ZM19.3444 16L17.6111 15.9111L17.0333 16L17.6111 16.0889L19.3444 16ZM19.2475 15.264L17.5507 15.6266L17.0155 15.8622L17.596 15.7982L19.2475 15.264ZM18.9631 14.5777L17.4182 15.3671L16.9622 15.7333L17.5071 15.5217L18.9631 14.5777ZM18.5115 13.9884L17.2227 15.1511L16.8769 15.6231L17.3489 15.2773L18.5115 13.9884ZM17.9222 13.5369L16.9782 14.9929L16.7667 15.5377L17.1329 15.0817L17.9222 13.5369ZM17.236 13.2524L16.7018 14.904L16.6378 15.4844L16.8733 14.9493L17.236 13.2524Z" fill="#6666B3"/>
<g id="Group">
<path id="Vector_7" d="M16.1089 13.208C16.2071 13.208 16.2867 13.1284 16.2867 13.0302C16.2867 12.932 16.2071 12.8524 16.1089 12.8524C16.0107 12.8524 15.9311 12.932 15.9311 13.0302C15.9311 13.1284 16.0107 13.208 16.1089 13.208Z" fill="#000080"/>
<path id="Vector_8" d="M15.3533 13.4106C15.4515 13.4106 15.5311 13.331 15.5311 13.2328C15.5311 13.1346 15.4515 13.0551 15.3533 13.0551C15.2552 13.0551 15.1756 13.1346 15.1756 13.2328C15.1756 13.331 15.2552 13.4106 15.3533 13.4106Z" fill="#000080"/>
<path id="Vector_9" d="M14.676 13.8009C14.7742 13.8009 14.8538 13.7213 14.8538 13.6231C14.8538 13.5249 14.7742 13.4453 14.676 13.4453C14.5778 13.4453 14.4982 13.5249 14.4982 13.6231C14.4982 13.7213 14.5778 13.8009 14.676 13.8009Z" fill="#000080"/>
<path id="Vector_10" d="M14.1231 14.3537C14.2213 14.3537 14.3009 14.2741 14.3009 14.1759C14.3009 14.0778 14.2213 13.9982 14.1231 13.9982C14.0249 13.9982 13.9453 14.0778 13.9453 14.1759C13.9453 14.2741 14.0249 14.3537 14.1231 14.3537Z" fill="#000080"/>
<path id="Vector_11" d="M13.7329 15.0311C13.8311 15.0311 13.9107 14.9515 13.9107 14.8533C13.9107 14.7551 13.8311 14.6755 13.7329 14.6755C13.6347 14.6755 13.5551 14.7551 13.5551 14.8533C13.5551 14.9515 13.6347 15.0311 13.7329 15.0311Z" fill="#000080"/>
<path id="Vector_12" d="M13.5302 15.7866C13.6284 15.7866 13.708 15.707 13.708 15.6088C13.708 15.5106 13.6284 15.431 13.5302 15.431C13.432 15.431 13.3524 15.5106 13.3524 15.6088C13.3524 15.707 13.432 15.7866 13.5302 15.7866Z" fill="#000080"/>
<path id="Vector_13" d="M13.5302 16.5688C13.6284 16.5688 13.708 16.4892 13.708 16.391C13.708 16.2929 13.6284 16.2133 13.5302 16.2133C13.432 16.2133 13.3524 16.2929 13.3524 16.391C13.3524 16.4892 13.432 16.5688 13.5302 16.5688Z" fill="#000080"/>
<path id="Vector_14" d="M13.7329 17.3244C13.8311 17.3244 13.9107 17.2448 13.9107 17.1467C13.9107 17.0485 13.8311 16.9689 13.7329 16.9689C13.6347 16.9689 13.5551 17.0485 13.5551 17.1467C13.5551 17.2448 13.6347 17.3244 13.7329 17.3244Z" fill="#000080"/>
<path id="Vector_15" d="M14.1231 18.0018C14.2213 18.0018 14.3009 17.9222 14.3009 17.824C14.3009 17.7258 14.2213 17.6462 14.1231 17.6462C14.0249 17.6462 13.9453 17.7258 13.9453 17.824C13.9453 17.9222 14.0249 18.0018 14.1231 18.0018Z" fill="#000080"/>
<path id="Vector_16" d="M14.676 18.5547C14.7742 18.5547 14.8538 18.4751 14.8538 18.3769C14.8538 18.2787 14.7742 18.1991 14.676 18.1991C14.5778 18.1991 14.4982 18.2787 14.4982 18.3769C14.4982 18.4751 14.5778 18.5547 14.676 18.5547Z" fill="#000080"/>
<path id="Vector_17" d="M15.3533 18.9449C15.4515 18.9449 15.5311 18.8653 15.5311 18.7671C15.5311 18.6689 15.4515 18.5894 15.3533 18.5894C15.2552 18.5894 15.1756 18.6689 15.1756 18.7671C15.1756 18.8653 15.2552 18.9449 15.3533 18.9449Z" fill="#000080"/>
<path id="Vector_18" d="M16.1089 19.1475C16.2071 19.1475 16.2867 19.068 16.2867 18.9698C16.2867 18.8716 16.2071 18.792 16.1089 18.792C16.0107 18.792 15.9311 18.8716 15.9311 18.9698C15.9311 19.068 16.0107 19.1475 16.1089 19.1475Z" fill="#000080"/>
<path id="Vector_19" d="M16.8911 19.1475C16.9893 19.1475 17.0689 19.068 17.0689 18.9698C17.0689 18.8716 16.9893 18.792 16.8911 18.792C16.7929 18.792 16.7133 18.8716 16.7133 18.9698C16.7133 19.068 16.7929 19.1475 16.8911 19.1475Z" fill="#000080"/>
<path id="Vector_20" d="M17.6467 18.9449C17.7449 18.9449 17.8245 18.8653 17.8245 18.7671C17.8245 18.6689 17.7449 18.5894 17.6467 18.5894C17.5485 18.5894 17.4689 18.6689 17.4689 18.7671C17.4689 18.8653 17.5485 18.9449 17.6467 18.9449Z" fill="#000080"/>
<path id="Vector_21" d="M18.324 18.5547C18.4222 18.5547 18.5018 18.4751 18.5018 18.3769C18.5018 18.2787 18.4222 18.1991 18.324 18.1991C18.2258 18.1991 18.1462 18.2787 18.1462 18.3769C18.1462 18.4751 18.2258 18.5547 18.324 18.5547Z" fill="#000080"/>
<path id="Vector_22" d="M18.8769 18.0018C18.9751 18.0018 19.0547 17.9222 19.0547 17.824C19.0547 17.7258 18.9751 17.6462 18.8769 17.6462C18.7787 17.6462 18.6991 17.7258 18.6991 17.824C18.6991 17.9222 18.7787 18.0018 18.8769 18.0018Z" fill="#000080"/>
<path id="Vector_23" d="M19.2671 17.3244C19.3653 17.3244 19.4449 17.2448 19.4449 17.1467C19.4449 17.0485 19.3653 16.9689 19.2671 16.9689C19.1689 16.9689 19.0893 17.0485 19.0893 17.1467C19.0893 17.2448 19.1689 17.3244 19.2671 17.3244Z" fill="#000080"/>
<path id="Vector_24" d="M19.4698 16.5688C19.568 16.5688 19.6475 16.4892 19.6475 16.391C19.6475 16.2929 19.568 16.2133 19.4698 16.2133C19.3716 16.2133 19.292 16.2929 19.292 16.391C19.292 16.4892 19.3716 16.5688 19.4698 16.5688Z" fill="#000080"/>
<path id="Vector_25" d="M19.4698 15.7866C19.568 15.7866 19.6475 15.707 19.6475 15.6088C19.6475 15.5106 19.568 15.431 19.4698 15.431C19.3716 15.431 19.292 15.5106 19.292 15.6088C19.292 15.707 19.3716 15.7866 19.4698 15.7866Z" fill="#000080"/>
<path id="Vector_26" d="M19.2671 15.0311C19.3653 15.0311 19.4449 14.9515 19.4449 14.8533C19.4449 14.7551 19.3653 14.6755 19.2671 14.6755C19.1689 14.6755 19.0893 14.7551 19.0893 14.8533C19.0893 14.9515 19.1689 15.0311 19.2671 15.0311Z" fill="#000080"/>
<path id="Vector_27" d="M18.8769 14.3537C18.9751 14.3537 19.0547 14.2741 19.0547 14.1759C19.0547 14.0778 18.9751 13.9982 18.8769 13.9982C18.7787 13.9982 18.6991 14.0778 18.6991 14.1759C18.6991 14.2741 18.7787 14.3537 18.8769 14.3537Z" fill="#000080"/>
<path id="Vector_28" d="M18.324 13.8009C18.4222 13.8009 18.5018 13.7213 18.5018 13.6231C18.5018 13.5249 18.4222 13.4453 18.324 13.4453C18.2258 13.4453 18.1462 13.5249 18.1462 13.6231C18.1462 13.7213 18.2258 13.8009 18.324 13.8009Z" fill="#000080"/>
<path id="Vector_29" d="M17.6467 13.4106C17.7449 13.4106 17.8245 13.331 17.8245 13.2328C17.8245 13.1346 17.7449 13.0551 17.6467 13.0551C17.5485 13.0551 17.4689 13.1346 17.4689 13.2328C17.4689 13.331 17.5485 13.4106 17.6467 13.4106Z" fill="#000080"/>
<path id="Vector_30" d="M16.8911 13.208C16.9893 13.208 17.0689 13.1284 17.0689 13.0302C17.0689 12.932 16.9893 12.8524 16.8911 12.8524C16.7929 12.8524 16.7133 12.932 16.7133 13.0302C16.7133 13.1284 16.7929 13.208 16.8911 13.208Z" fill="#000080"/>
<path id="Vector_31" d="M16.5 16.8C16.9418 16.8 17.3 16.4418 17.3 16C17.3 15.5581 16.9418 15.2 16.5 15.2C16.0582 15.2 15.7 15.5581 15.7 16C15.7 16.4418 16.0582 16.8 16.5 16.8Z" fill="#000080"/>
</g>
</g>
<defs>
<clipPath id="clip0_431_1586">
<rect width="32" height="32" fill="white" transform="translate(0.5)"/>
</clipPath>
</defs>
</svg>
