<svg width="28" height="28" viewBox="0 0 28 28" fill="none" xmlns="http://www.w3.org/2000/svg">
<path d="M6.125 13.125H23.625C23.8571 13.125 24.0796 13.2172 24.2437 13.3813C24.4078 13.5454 24.5 13.7679 24.5 14C24.5 14.2321 24.4078 14.4546 24.2437 14.6187C24.0796 14.7828 23.8571 14.875 23.625 14.875H6.125C5.89294 14.875 5.67038 14.7828 5.50628 14.6187C5.34219 14.4546 5.25 14.2321 5.25 14C5.25 13.7679 5.34219 13.5454 5.50628 13.3813C5.67038 13.2172 5.89294 13.125 6.125 13.125Z" fill="#0F002B"/>
<path d="M6.48723 14L13.7445 21.2555C13.9088 21.4198 14.0011 21.6427 14.0011 21.875C14.0011 22.1074 13.9088 22.3302 13.7445 22.4945C13.5802 22.6588 13.3573 22.7511 13.125 22.7511C12.8926 22.7511 12.6698 22.6588 12.5055 22.4945L4.63048 14.6195C4.54899 14.5382 4.48434 14.4417 4.44023 14.3354C4.39612 14.2291 4.37341 14.1151 4.37341 14C4.37341 13.8849 4.39612 13.771 4.44023 13.6646C4.48434 13.5583 4.54899 13.4618 4.63048 13.3805L12.5055 5.50551C12.6698 5.3412 12.8926 5.2489 13.125 5.2489C13.3573 5.2489 13.5802 5.3412 13.7445 5.50551C13.9088 5.66981 14.0011 5.89265 14.0011 6.12501C14.0011 6.35736 13.9088 6.58021 13.7445 6.74451L6.48723 14Z" fill="#0F002B"/>
</svg>
