<svg width="20" height="21" viewBox="0 0 20 21" fill="none" xmlns="http://www.w3.org/2000/svg">
<g id="material-symbols:edit-outline">
<path id="Vector" d="M4.16667 16.3332H5.33333L12.5208 9.14567L11.3542 7.979L4.16667 15.1665V16.3332ZM16.0833 7.93734L12.5417 4.43734L13.7083 3.27067C14.0278 2.95123 14.4203 2.7915 14.8858 2.7915C15.3514 2.7915 15.7436 2.95123 16.0625 3.27067L17.2292 4.43734C17.5486 4.75678 17.7153 5.14234 17.7292 5.594C17.7431 6.04567 17.5903 6.43095 17.2708 6.74984L16.0833 7.93734ZM14.875 9.1665L6.04167 17.9998H2.5V14.4582L11.3333 5.62484L14.875 9.1665ZM11.9375 8.56234L11.3542 7.979L12.5208 9.14567L11.9375 8.56234Z" fill="white"/>
</g>
</svg>
