<svg width="58" height="58" viewBox="0 0 58 58" fill="none" xmlns="http://www.w3.org/2000/svg">
<g filter="url(#filter0_d_647_1845)">
<rect x="4" width="50" height="50" rx="25" fill="white"/>
<path d="M23.1667 30.8332H24.3333L31.5208 23.6457L30.3542 22.479L23.1667 29.6665V30.8332ZM35.0833 22.4373L31.5417 18.9373L32.7083 17.7707C33.0278 17.4512 33.4203 17.2915 33.8858 17.2915C34.3514 17.2915 34.7436 17.4512 35.0625 17.7707L36.2292 18.9373C36.5486 19.2568 36.7153 19.6423 36.7292 20.094C36.7431 20.5457 36.5903 20.9309 36.2708 21.2498L35.0833 22.4373ZM33.875 23.6665L25.0417 32.4998H21.5V28.9582L30.3333 20.1248L33.875 23.6665ZM30.9375 23.0623L30.3542 22.479L31.5208 23.6457L30.9375 23.0623Z" fill="#0F002B"/>
</g>
<defs>
<filter id="filter0_d_647_1845" x="0" y="0" width="58" height="58" filterUnits="userSpaceOnUse" color-interpolation-filters="sRGB">
<feFlood flood-opacity="0" result="BackgroundImageFix"/>
<feColorMatrix in="SourceAlpha" type="matrix" values="0 0 0 0 0 0 0 0 0 0 0 0 0 0 0 0 0 0 127 0" result="hardAlpha"/>
<feOffset dy="4"/>
<feGaussianBlur stdDeviation="2"/>
<feComposite in2="hardAlpha" operator="out"/>
<feColorMatrix type="matrix" values="0 0 0 0 0 0 0 0 0 0 0 0 0 0 0 0 0 0 0.25 0"/>
<feBlend mode="normal" in2="BackgroundImageFix" result="effect1_dropShadow_647_1845"/>
<feBlend mode="normal" in="SourceGraphic" in2="effect1_dropShadow_647_1845" result="shape"/>
</filter>
</defs>
</svg>
