<svg width="19" height="19" viewBox="0 0 19 19" fill="none" xmlns="http://www.w3.org/2000/svg">
<path d="M7.99011 1.58488C8.40261 0.749049 9.59511 0.749049 10.0076 1.58488L11.9726 5.56655L16.3668 6.20488C17.2893 6.33822 17.6576 7.47322 16.9901 8.12405L16.2359 8.85905C15.838 8.63503 15.4132 8.46253 14.9718 8.34572L15.9359 7.40572L11.7276 6.79405C11.5471 6.76772 11.3758 6.69791 11.2283 6.59062C11.0808 6.48334 10.9616 6.34181 10.8809 6.17822L8.99844 2.36655L7.11677 6.17822C7.03614 6.34181 6.91694 6.48334 6.76944 6.59062C6.62195 6.69791 6.45058 6.76772 6.27011 6.79405L2.06177 7.40572L5.10677 10.374C5.37177 10.6324 5.49261 11.0049 5.43011 11.3699L4.71177 15.5607L8.16927 13.7432C8.18177 14.1949 8.25094 14.6324 8.36761 15.0507L5.06927 16.7849C4.24427 17.2182 3.27927 16.5182 3.43594 15.599L4.18677 11.2232L1.00761 8.12322C0.340107 7.47322 0.708441 6.33905 1.63094 6.20488L6.02511 5.56655L7.99011 1.58488ZM18.1668 13.5832C18.1668 12.3676 17.6839 11.2019 16.8243 10.3423C15.9648 9.48277 14.799 8.99988 13.5834 8.99988C12.3679 8.99988 11.2021 9.48277 10.3425 10.3423C9.48299 11.2019 9.00011 12.3676 9.00011 13.5832C9.00011 14.7988 9.48299 15.9646 10.3425 16.8241C11.2021 17.6837 12.3679 18.1665 13.5834 18.1665C14.799 18.1665 15.9648 17.6837 16.8243 16.8241C17.6839 15.9646 18.1668 14.7988 18.1668 13.5832ZM14.0001 13.9999L14.0009 16.0857C14.0009 16.1962 13.957 16.3022 13.8789 16.3803C13.8008 16.4585 13.6948 16.5024 13.5843 16.5024C13.4738 16.5024 13.3678 16.4585 13.2896 16.3803C13.2115 16.3022 13.1676 16.1962 13.1676 16.0857V13.9999H11.0801C10.9696 13.9999 10.8636 13.956 10.7855 13.8778C10.7073 13.7997 10.6634 13.6937 10.6634 13.5832C10.6634 13.4727 10.7073 13.3667 10.7855 13.2886C10.8636 13.2104 10.9696 13.1665 11.0801 13.1665H13.1668V11.0824C13.1668 10.9719 13.2107 10.8659 13.2888 10.7878C13.367 10.7096 13.4729 10.6657 13.5834 10.6657C13.6939 10.6657 13.7999 10.7096 13.8781 10.7878C13.9562 10.8659 14.0001 10.9719 14.0001 11.0824V13.1657H16.0809C16.1914 13.1657 16.2974 13.2096 16.3756 13.2878C16.4537 13.3659 16.4976 13.4719 16.4976 13.5824C16.4976 13.6929 16.4537 13.7989 16.3756 13.877C16.2974 13.9552 16.1914 13.999 16.0809 13.999L14.0001 13.9999Z" fill="#0F002B"/>
</svg>
