<svg width="28" height="28" viewBox="0 0 28 28" fill="none" xmlns="http://www.w3.org/2000/svg">
<g id="ic:outline-info">
<path id="Vector" d="M12.8333 8.16683H15.1667V10.5002H12.8333V8.16683ZM12.8333 12.8335H15.1667V19.8335H12.8333V12.8335ZM14 2.3335C7.56001 2.3335 2.33334 7.56016 2.33334 14.0002C2.33334 20.4402 7.56001 25.6668 14 25.6668C20.44 25.6668 25.6667 20.4402 25.6667 14.0002C25.6667 7.56016 20.44 2.3335 14 2.3335ZM14 23.3335C8.85501 23.3335 4.66668 19.1452 4.66668 14.0002C4.66668 8.85516 8.85501 4.66683 14 4.66683C19.145 4.66683 23.3333 8.85516 23.3333 14.0002C23.3333 19.1452 19.145 23.3335 14 23.3335Z" fill="white"/>
</g>
</svg>
